<svg width="45" height="29" viewBox="0 0 45 29" fill="none" xmlns="http://www.w3.org/2000/svg">
<g clip-path="url(#clip0_62_2381)">
<path d="M0.767238 4.545C1.06134 4.8234 1.48815 4.9626 2.04764 4.9626C2.38304 4.9626 2.68503 4.91538 2.9538 4.82093C3.22257 4.72649 3.43616 4.58805 3.59457 4.4058C3.75297 4.22355 3.83218 4.01324 3.83218 3.77486V3.73522C3.83218 3.72422 3.83124 3.70924 3.82974 3.69046C3.82805 3.67169 3.82561 3.65386 3.82223 3.6368H16.5672C16.9294 3.6368 17.2032 3.54311 17.3887 3.35593C17.5709 3.53856 17.8097 3.63186 18.1039 3.63642V3.6368H18.2102C18.4714 3.6368 18.7098 3.53458 18.9255 3.33033C19.2085 3.57213 19.5026 3.69293 19.8076 3.69293C20.0906 3.69293 20.311 3.60266 20.4686 3.42212C20.6261 3.24158 20.7049 3.00073 20.7049 2.69938C20.7049 2.49684 20.6633 2.30777 20.5797 2.13235C20.4964 1.95693 20.374 1.81432 20.2132 1.70451C20.0521 1.59471 19.8682 1.53971 19.6608 1.53971C19.2428 1.53971 18.9091 1.8164 18.6599 2.36978C18.5874 2.53155 18.5146 2.65539 18.4412 2.74149C18.3678 2.82739 18.2866 2.87044 18.1972 2.87044H18.1214C17.9799 2.87044 17.8862 2.84484 17.8408 2.79383C17.7954 2.74281 17.7725 2.64135 17.7725 2.48983V0.148102H17.042V2.49021C17.042 2.56341 17.036 2.6222 17.0244 2.66639C17.0125 2.71076 16.9893 2.74907 16.9549 2.78131C16.9204 2.81374 16.8727 2.83669 16.8121 2.85034C16.7515 2.864 16.6713 2.87082 16.572 2.87082H2.33312C2.24716 2.87082 2.19404 2.88694 2.17377 2.91937C2.1535 2.9518 2.15519 3.02064 2.17884 3.12627L2.2496 3.42762C2.26649 3.49741 2.29426 3.54975 2.33312 3.58464C2.37178 3.61954 2.43428 3.63698 2.52024 3.63698H2.85639C2.90181 3.63698 2.94141 3.6404 2.9752 3.64723C3.00879 3.65405 3.03451 3.66202 3.05234 3.6715C3.06998 3.68079 3.08424 3.69141 3.09532 3.70336C3.1062 3.71531 3.11296 3.72555 3.11559 3.73408C3.11803 3.74262 3.11934 3.7502 3.11934 3.75703C3.11934 3.79951 3.09156 3.8473 3.03601 3.90002C2.98045 3.95274 2.90613 4.00262 2.8136 4.04946C2.72088 4.0963 2.60583 4.13594 2.46863 4.16818C2.33124 4.20042 2.1901 4.21673 2.0452 4.21673C1.69967 4.21673 1.44948 4.14523 1.29445 4.00224C1.13942 3.85925 1.06191 3.63528 1.06191 3.33052C1.06191 3.0836 1.10395 2.84105 1.18822 2.60267L1.23871 2.46479L1.1047 2.40866L0.715436 2.24765L0.578987 2.19152L0.518364 2.32939C0.456052 2.47067 0.408379 2.63244 0.375534 2.81469C0.342688 2.99694 0.326172 3.16799 0.326172 3.32805C0.326172 3.86095 0.473131 4.26679 0.767238 4.545V4.545ZM19.478 2.40088C19.5379 2.34816 19.6023 2.3218 19.6713 2.3218C19.7657 2.3218 19.8406 2.3567 19.8964 2.42649C19.9519 2.49628 19.9797 2.6002 19.9797 2.73807C19.9797 2.81981 19.9662 2.87386 19.9392 2.90022C19.9121 2.92658 19.8566 2.93985 19.7723 2.93985C19.6342 2.93985 19.4791 2.84958 19.3072 2.66904C19.3611 2.54312 19.418 2.45361 19.4778 2.40088H19.478Z" fill="#C7C6C5"/>
<path d="M22.7564 4.49533C23.0522 4.77278 23.478 4.9116 24.0342 4.9116C24.2937 4.9116 24.5334 4.8805 24.7534 4.8183C24.9733 4.7561 25.1654 4.66677 25.3298 4.55014C25.494 4.43351 25.6226 4.28445 25.7153 4.10315C25.808 3.92185 25.8544 3.71704 25.8544 3.48889C25.8544 3.36638 25.8266 3.25601 25.771 3.15815C25.7155 3.0603 25.6346 2.98273 25.5283 2.92565C25.4221 2.86857 25.2992 2.84012 25.1593 2.84012H24.7044C24.674 2.84012 24.655 2.83671 24.6475 2.82988C24.64 2.82305 24.6361 2.80599 24.6361 2.77887C24.6361 2.74814 24.6402 2.71628 24.6486 2.6831C24.6571 2.64991 24.6702 2.6171 24.6879 2.58467C24.7055 2.55224 24.7265 2.52133 24.7511 2.49137C24.7755 2.46159 24.8046 2.4339 24.8384 2.4083C24.872 2.3827 24.9088 2.36013 24.9484 2.3406C24.988 2.32107 25.0317 2.30608 25.0798 2.29584C25.1278 2.2856 25.1779 2.28048 25.2301 2.28048C25.2823 2.28048 25.338 2.2839 25.3919 2.29072C25.4458 2.29755 25.5013 2.3095 25.5587 2.32657L25.7205 2.37758L25.7534 2.20899L25.8343 1.7876L25.857 1.66509L25.7432 1.61919C25.6792 1.59188 25.6102 1.57064 25.536 1.55528C25.4619 1.53992 25.4047 1.53101 25.3641 1.52854C25.3236 1.52608 25.2789 1.52475 25.2301 1.52475C25.0582 1.52475 24.893 1.55547 24.7346 1.61673C24.5762 1.67798 24.4354 1.76313 24.3125 1.87218C24.1894 1.98122 24.0908 2.11739 24.0167 2.28086C23.9426 2.44433 23.9054 2.62146 23.9054 2.81205C23.9054 3.05556 23.9745 3.2471 24.1126 3.38668C24.2507 3.52625 24.4396 3.59604 24.6789 3.59604H25.0935C25.1002 3.59604 25.1083 3.59699 25.1175 3.59851C25.1267 3.60021 25.1331 3.60287 25.1364 3.60609C25.1398 3.60951 25.1406 3.61463 25.1389 3.62146C25.1321 3.69295 25.098 3.76236 25.0366 3.82968C24.975 3.89701 24.8955 3.95523 24.7977 4.00473C24.6999 4.05403 24.5854 4.09367 24.4538 4.12344C24.3224 4.15322 24.1867 4.1682 24.0469 4.1682C23.6963 4.16649 23.4424 4.09405 23.2847 3.95106C23.1271 3.80806 23.0484 3.58239 23.0484 3.27422C23.0484 3.00853 23.1226 2.69353 23.2708 2.32922L23.3264 2.18623L23.1873 2.12744L22.7954 1.96662L22.6563 1.91049L22.5982 2.05101C22.4077 2.50388 22.3125 2.91427 22.3125 3.28218C22.3125 3.81338 22.4604 4.21789 22.7562 4.49533H22.7564Z" fill="#C7C6C5"/>
<path d="M26.7517 3.63452H26.9035V3.48129V0.301334V0.148102H26.7517H26.3245H26.1729V0.301334V3.48129V3.63452H26.3245H26.7517Z" fill="#C7C6C5"/>
<path d="M26.7136 4.28842L26.5342 4.32426L26.5999 4.49532L26.7515 4.88864L26.7969 5.00622L26.9208 4.98327C27.4803 4.87594 27.9071 4.66657 28.2012 4.35498C28.4953 4.0434 28.6423 3.63813 28.6423 3.13917C28.6423 2.79857 28.5698 2.44621 28.4249 2.08172L28.3694 1.94385L28.2329 1.99486L27.8234 2.14297L27.6718 2.19664L27.735 2.34476C27.7922 2.48433 27.8369 2.62657 27.869 2.77127C27.9009 2.91596 27.9171 3.04284 27.9171 3.15188C27.9137 3.45664 27.8159 3.70223 27.6239 3.88865C27.4317 4.07507 27.1284 4.20839 26.714 4.28842H26.7136Z" fill="#C7C6C5"/>
<path d="M28.9812 4.28842L28.8018 4.32161L28.8674 4.49532L29.0191 4.88865L29.0645 5.00623L29.1884 4.98328C29.6233 4.89983 29.9774 4.74281 30.2513 4.51201C30.5251 4.28122 30.7066 3.98973 30.7959 3.63718H40.6291C40.978 3.63718 41.2458 3.55033 41.433 3.37661C41.5897 3.55033 41.8162 3.63718 42.1129 3.63718C42.3793 3.63718 42.6051 3.54862 42.7903 3.37149C42.9437 3.54862 43.1542 3.63718 43.4223 3.63718C43.557 3.63718 43.6788 3.61386 43.7875 3.56702C43.8962 3.52017 43.9855 3.45854 44.0555 3.38192C44.1253 3.30531 44.1835 3.21428 44.2299 3.10865C44.2762 3.00301 44.3091 2.89321 44.3284 2.77923C44.3477 2.66526 44.3575 2.54521 44.3575 2.4191C44.3575 2.16194 44.3145 1.89644 44.2286 1.62222L44.1856 1.48169L44.0441 1.52L43.6193 1.63492L43.4727 1.67589L43.5131 1.824C43.5839 2.08457 43.6193 2.29564 43.6193 2.45741C43.6193 2.61917 43.6017 2.73069 43.5662 2.78682C43.5307 2.84295 43.4819 2.87102 43.4196 2.87102C43.3404 2.87102 43.2805 2.84599 43.2402 2.79573C43.1997 2.74548 43.1762 2.66412 43.1694 2.55185L43.1291 1.97457L43.1165 1.81357L42.9598 1.83139L42.5427 1.88241L42.3986 1.90023L42.4087 2.04835C42.4256 2.25771 42.4341 2.40507 42.4341 2.49022C42.4341 2.63662 42.4117 2.73675 42.3671 2.79042C42.3224 2.84409 42.2394 2.87083 42.118 2.87083C42.0253 2.87083 41.9562 2.84523 41.9108 2.79422C41.8654 2.7432 41.8384 2.66222 41.8299 2.55166L41.7896 1.97438L41.777 1.81338L41.6203 1.8312L41.2032 1.88222L41.0566 1.90004L41.0692 2.04816C41.0861 2.2524 41.0945 2.39976 41.0945 2.49003C41.0945 2.64497 41.0641 2.74718 41.0035 2.79649C40.9429 2.8458 40.8198 2.87064 40.6345 2.87064H30.8444C30.8021 2.43313 30.6978 2.09386 30.5309 1.85282C30.3641 1.61197 30.1298 1.49136 29.8282 1.49136C29.6799 1.49136 29.5426 1.52626 29.4162 1.59604C29.2899 1.66583 29.1845 1.75876 29.1002 1.87444C29.0159 1.99031 28.9502 2.12212 28.9031 2.27042C28.856 2.41853 28.8324 2.57101 28.8324 2.72765C28.8324 3.02388 28.9268 3.24955 29.1154 3.40449C29.304 3.55943 29.567 3.63699 29.904 3.63699H30.0581C29.8811 3.96906 29.5223 4.1862 28.9814 4.28823L28.9812 4.28842ZM29.8785 2.87083C29.7455 2.87083 29.6578 2.85585 29.6156 2.82608C29.5733 2.7963 29.5523 2.75079 29.5523 2.68934C29.5523 2.56854 29.5793 2.46841 29.6332 2.38933C29.6871 2.31005 29.7402 2.27061 29.7926 2.27061C29.9662 2.27061 30.0773 2.47068 30.1263 2.87083H29.8785V2.87083Z" fill="#C7C6C5"/>
<path d="M42.618 0.784178L42.6535 0.819832L42.689 0.784178L43.0251 0.444336L43.0604 0.408683L43.0251 0.37284L42.689 0.0358427L42.6535 0L42.618 0.0358427L42.2845 0.37284L42.249 0.408683L42.2845 0.444336L42.618 0.784178Z" fill="#C7C6C5"/>
<path d="M42.7199 1.04209L42.6846 1.07774L42.7199 1.11359L43.0536 1.45324L43.089 1.48908L43.1243 1.45324L43.4605 1.11359L43.4959 1.07774L43.4605 1.04209L43.1243 0.704904L43.089 0.66925L43.0536 0.704904L42.7199 1.04209Z" fill="#C7C6C5"/>
<path d="M42.1942 1.45324L42.2295 1.48908L42.265 1.45324L42.6011 1.11359L42.6366 1.07774L42.6011 1.04209L42.265 0.704904L42.2295 0.66925L42.1942 0.704904L41.8605 1.04209L41.8252 1.07774L41.8605 1.11359L42.1942 1.45324Z" fill="#C7C6C5"/>
<path d="M0.444632 10.6472C0.741179 10.9246 1.16836 11.0635 1.72616 11.0635C2.28397 11.0635 2.67962 10.9182 2.99381 10.628C3.308 10.3377 3.46528 9.9294 3.46528 9.40332C3.46528 9.01 3.38345 8.60227 3.22016 8.17993L3.16704 8.04453L3.03059 8.09042L2.60342 8.23853L2.44163 8.29467L2.51501 8.45055C2.65653 8.74848 2.72729 9.04054 2.72729 9.32671C2.7256 9.66902 2.6464 9.91935 2.48968 10.0777C2.33296 10.2361 2.08427 10.3153 1.74399 10.3153C1.40372 10.3153 1.13401 10.2438 0.975601 10.1008C0.817192 9.95784 0.737988 9.73312 0.737988 9.42646C0.737988 9.15906 0.796171 8.86967 0.91235 8.55808L0.965465 8.41755L0.829016 8.36142L0.437125 8.20041L0.295608 8.14428L0.240053 8.2848C0.079955 8.67642 0 9.06121 0 9.43936C0 9.96714 0.148273 10.3699 0.44482 10.6474L0.444632 10.6472Z" fill="#C7C6C5"/>
<path d="M1.68829 7.52338L1.65282 7.56187L1.28382 7.93471L1.25098 7.9679L1.28626 8.00375L1.65526 8.37905L1.69073 8.41489L1.7262 8.37905L2.0952 8.00621L2.13067 7.97037L2.0952 7.93471L1.72357 7.56187L1.68829 7.52338Z" fill="#C7C6C5"/>
<path d="M4.88121 9.91423H5.14416C5.51147 9.91423 5.79507 9.80613 5.99477 9.58994C6.19446 9.37374 6.29431 9.07657 6.29431 8.69861C6.29431 8.40921 6.25209 8.12058 6.168 7.8327L6.12502 7.69217L5.9835 7.72782L5.57904 7.83004L5.43489 7.86588L5.47037 8.014C5.5293 8.26262 5.55877 8.49342 5.55877 8.7062C5.55877 8.88503 5.53061 9.00337 5.47412 9.06121C5.41763 9.11905 5.30764 9.14807 5.14416 9.14807H4.88121C4.74139 9.14807 4.64529 9.12171 4.59311 9.06899C4.54075 9.01627 4.51466 8.90305 4.51466 8.72933V6.42554H3.78418V8.72687C3.78418 9.1219 3.87896 9.41869 4.06853 9.61706C4.25077 9.80765 4.50828 9.90645 4.84086 9.91385V9.91461H4.8814L4.88121 9.91423Z" fill="#C7C6C5"/>
<path d="M5.54607 7.46477L5.58154 7.50043L5.61683 7.46477L5.98582 7.09174L6.02129 7.05609L5.98582 7.02025L5.6142 6.64741L5.57891 6.6091L5.54344 6.64741L5.17445 7.02025L5.1416 7.05344L5.17707 7.08928L5.54607 7.46477Z" fill="#C7C6C5"/>
<path d="M6.6123 6.42514V6.57837V9.75833V9.91156H6.76414H7.19132H7.34297V9.75833V6.57837V6.42514H7.19132H6.76414H6.6123Z" fill="#C7C6C5"/>
<path d="M20.4044 9.91423H34.7597C35.0311 9.91423 35.2586 9.89469 35.4421 9.85544C35.6259 9.81637 35.7854 9.74734 35.9211 9.64853C36.0568 9.54973 36.1563 9.41319 36.2194 9.23852C36.2826 9.06405 36.3141 8.84482 36.3141 8.58084C36.3141 8.42078 36.3032 8.26622 36.2813 8.11735C36.2593 7.96829 36.2224 7.82188 36.17 7.67794C36.1178 7.534 36.0529 7.40884 35.9754 7.30245C35.8978 7.19606 35.7984 7.10996 35.6771 7.04453C35.5559 6.97891 35.4192 6.94611 35.2676 6.94611C35.1447 6.94611 35.0296 6.96829 34.9226 7.01248C34.8156 7.05686 34.7237 7.11716 34.6471 7.19378C34.5703 7.2704 34.505 7.35972 34.4511 7.46194C34.3971 7.56416 34.3567 7.67358 34.3299 7.79021C34.3029 7.90684 34.2894 8.02651 34.2894 8.14902C34.2927 8.41983 34.3804 8.62332 34.5523 8.75948C34.7242 8.89565 34.9626 8.96373 35.2676 8.96373C35.3704 8.96373 35.4707 8.95614 35.5684 8.94078C35.5634 8.97151 35.5519 8.99825 35.5343 9.02119C35.5166 9.04414 35.49 9.06329 35.4547 9.07865C35.4192 9.09402 35.3819 9.10634 35.3423 9.11564C35.3027 9.12512 35.2513 9.13175 35.188 9.13612C35.1248 9.14029 35.0638 9.14332 35.0048 9.14503C34.9459 9.14674 34.8734 9.1475 34.7875 9.1475H10.1769C10.1448 9.1475 10.1167 9.14237 10.0923 9.13213C10.0679 9.12189 10.0384 9.0997 10.0039 9.06576C9.96935 9.03181 9.93182 8.97587 9.89146 8.89849C9.85092 8.82112 9.80719 8.72193 9.76008 8.60094L9.23437 7.24461L9.17619 7.09384L9.0296 7.16021L8.62269 7.35176L8.48869 7.41301L8.54424 7.55088L8.85017 8.27115C8.89559 8.3802 8.93613 8.48184 8.97142 8.57629C9.00689 8.67073 9.03167 8.74147 9.04593 8.78831C9.06019 8.83515 9.06751 8.8636 9.06751 8.87384C9.06751 9.05438 8.82558 9.14465 8.3421 9.14465C8.19721 9.14465 8.03279 9.1217 7.84923 9.07562L7.66211 9.02973V9.81637L7.77848 9.84444C7.96222 9.88881 8.16267 9.91081 8.38001 9.91081C8.86369 9.91081 9.23531 9.80101 9.49469 9.5814C9.67675 9.80272 9.90423 9.91347 10.1771 9.91347H20.4046L20.4044 9.91423ZM35.3006 8.24896C35.1758 8.24896 35.0945 8.23531 35.0566 8.208C35.0187 8.18088 34.9998 8.13821 34.9998 8.08037C34.9998 7.96639 35.0272 7.87479 35.082 7.80576C35.1368 7.73673 35.1927 7.70222 35.2501 7.70222C35.3209 7.70222 35.3841 7.74773 35.4397 7.83895C35.4953 7.92998 35.5375 8.05647 35.566 8.21824C35.4733 8.23872 35.3849 8.24896 35.3006 8.24896V8.24896Z" fill="#C7C6C5"/>
<path d="M35.5862 5.85565L35.5509 5.89131L35.1969 6.24897L35.1691 6.27704L35.1389 6.24897L34.7825 5.89131L34.747 5.85565L34.7115 5.89131L34.3577 6.24897L34.3223 6.28482L34.3577 6.32047L34.7115 6.68326L34.747 6.71891L34.7825 6.68326L35.1389 6.32047L35.1691 6.2924L35.1969 6.32047L35.5509 6.68326L35.5862 6.71891L35.6216 6.68326L35.978 6.32047L36.0133 6.28482L35.978 6.24897L35.6216 5.89131L35.5862 5.85565Z" fill="#C7C6C5"/>
<path d="M39.4716 7.18372L39.5069 7.14807L39.8633 6.78528L39.8937 6.75722L39.9215 6.78528L40.2755 7.14807L40.3108 7.18372L40.3462 7.14807L40.7027 6.78528L40.7379 6.74963L40.7027 6.71379L40.3462 6.35631L40.3108 6.32047L40.2755 6.35631L39.9215 6.71379L39.8937 6.74185L39.8633 6.71379L39.5069 6.35631L39.4716 6.32047L39.4361 6.35631L39.0824 6.71379L39.0469 6.74963L39.0824 6.78528L39.4361 7.14807L39.4716 7.18372Z" fill="#C7C6C5"/>
<path d="M43.7988 8.09817C43.6353 8.04204 43.4247 7.95082 43.1668 7.82489C42.9915 7.73974 42.8386 7.67508 42.7081 7.6307C42.5775 7.58651 42.4532 7.56432 42.3352 7.56432C42.1195 7.56432 41.9206 7.62311 41.7385 7.7405C41.5565 7.85808 41.4041 8.01644 41.281 8.21556L41.243 8.28459L41.1621 8.42512L41.3063 8.49927L41.688 8.69081L41.7993 8.74694L41.8778 8.64738L41.9461 8.55806C41.9983 8.48827 42.0599 8.43214 42.1306 8.38947C42.2014 8.34699 42.2688 8.32556 42.3328 8.32556C42.3968 8.32556 42.6041 8.398 42.9546 8.5427C43.0118 8.56489 43.0666 8.58707 43.1188 8.60907C42.93 8.70788 42.7749 8.78582 42.6537 8.84271C42.5325 8.8998 42.4009 8.95385 42.2594 9.00486C42.1179 9.05587 41.9822 9.09248 41.8525 9.11466C41.7226 9.13685 41.5861 9.14785 41.4429 9.14785H40.8943C40.869 9.14785 40.8365 9.14747 40.7969 9.14652C40.7573 9.14577 40.7282 9.1452 40.7096 9.1452C40.8765 8.92218 40.9598 8.69233 40.9598 8.45565C40.9598 8.34319 40.9324 8.22618 40.8776 8.10443C40.8228 7.98268 40.75 7.87117 40.659 7.7699C40.5679 7.66863 40.4568 7.58518 40.3252 7.51957C40.1939 7.45395 40.0582 7.42114 39.9183 7.42114C39.7785 7.42114 39.6496 7.45699 39.5216 7.52848C39.3936 7.59998 39.2853 7.68949 39.1967 7.79664C39.1081 7.90379 39.0375 8.02023 38.9844 8.1452C38.9313 8.27037 38.9048 8.38662 38.9048 8.49377C38.9048 8.72362 38.9848 8.94076 39.1449 9.14501C39.1043 9.14671 39.0268 9.14747 38.9123 9.14747H38.518C38.4758 8.70996 38.3714 8.37069 38.2046 8.12965C38.0377 7.8888 37.8035 7.76819 37.5019 7.76819C37.3536 7.76819 37.2162 7.80309 37.0899 7.87288C36.9636 7.94266 36.8581 8.03559 36.7738 8.15127C36.6895 8.26714 36.6239 8.39895 36.5767 8.54725C36.5296 8.69536 36.506 8.84784 36.506 9.00448C36.506 9.30071 36.6004 9.52638 36.789 9.68132C36.9776 9.83626 37.2406 9.91382 37.5777 9.91382H37.7318C37.5548 10.2459 37.1959 10.463 36.655 10.5651L36.4756 10.5982L36.5413 10.772L36.6929 11.1653L36.7383 11.2829L36.8622 11.2599C37.2971 11.1765 37.6513 11.0195 37.9251 10.7887C38.1989 10.5579 38.3804 10.2664 38.4698 9.91382H38.9121C39.3217 9.91382 39.6578 9.83133 39.9208 9.66615C40.1871 9.83133 40.5131 9.91382 40.899 9.91382H41.4349C41.6085 9.91382 41.7764 9.89979 41.9392 9.87172C42.1017 9.84366 42.2644 9.79985 42.427 9.74011C42.5895 9.68056 42.7353 9.62045 42.8643 9.55995C42.9932 9.49945 43.1477 9.42075 43.3281 9.32365C43.5 9.23168 43.6436 9.15809 43.759 9.10272C43.8744 9.04734 43.9701 9.00657 44.046 8.98021C44.1218 8.95385 44.1875 8.93811 44.243 8.93299L44.3744 8.91762L44.3769 8.78222L44.3819 8.34793L44.3844 8.19982L44.2378 8.19224C44.1079 8.18541 43.9613 8.15393 43.798 8.09779L43.7988 8.09817ZM37.5527 9.14785C37.4197 9.14785 37.332 9.13287 37.2898 9.1031C37.2475 9.07332 37.2265 9.02781 37.2265 8.96636C37.2265 8.84556 37.2536 8.74543 37.3074 8.66635C37.3613 8.58707 37.4144 8.54763 37.4668 8.54763C37.6404 8.54763 37.7515 8.7477 37.8005 9.14785H37.5527ZM40.1133 8.71489C40.0392 8.8247 39.9786 8.89164 39.9313 8.91535C39.8842 8.89145 39.823 8.82641 39.7481 8.72001C39.673 8.61362 39.6347 8.54346 39.6331 8.50932C39.6347 8.47348 39.6736 8.41052 39.7494 8.32025C39.8252 8.22997 39.8808 8.18143 39.9163 8.1746C39.9583 8.17631 40.0195 8.21803 40.0995 8.29976C40.1794 8.3815 40.223 8.44446 40.2297 8.48884C40.2263 8.52961 40.1875 8.60509 40.1133 8.71489Z" fill="#C7C6C5"/>
<path d="M1.50067 20.5491L2.17841 21.7793H2.92729V18.5848H2.27113V19.5161C2.27113 19.9989 2.28483 20.4283 2.32875 20.8506L2.31655 20.8521C2.1741 20.4912 1.98923 20.0913 1.79985 19.7564L1.1435 18.5846H0.310547V21.7791H0.966891V20.819C0.966891 20.2972 0.957882 19.8451 0.935735 19.4218L0.951313 19.4203C1.10465 19.7949 1.31205 20.2043 1.50049 20.5489L1.50067 20.5491Z" fill="#C7C6C5"/>
<path d="M4.27838 18.5847L3.31348 21.7793H4.05259L4.27575 20.9591H5.18491L5.42797 21.7793H6.19824L5.214 18.5847H4.27857H4.27838ZM4.37935 20.4209L4.56836 19.7427C4.61903 19.5572 4.6667 19.3147 4.71306 19.1268H4.72301C4.77143 19.3137 4.82755 19.5531 4.88179 19.742L5.07868 20.4209H4.37917H4.37935Z" fill="#C7C6C5"/>
<path d="M7.55134 21.7793V19.191H8.41658V18.5847H5.9834V19.191H6.83663V21.7793H7.55134Z" fill="#C7C6C5"/>
<path d="M9.50671 18.5847H8.79199V21.7793H9.50671V18.5847Z" fill="#C7C6C5"/>
<path d="M13.0152 20.1501C13.0152 19.2663 12.485 18.5326 11.5144 18.5326C10.5439 18.5326 9.97559 19.2487 9.97559 20.2037C9.97559 21.1588 10.5272 21.8315 11.4647 21.8315C12.4022 21.8315 13.0152 21.1982 13.0152 20.1501V20.1501ZM11.5 21.2572C11.0231 21.2572 10.7312 20.8159 10.7312 20.1903C10.7312 19.5646 11.0142 19.1072 11.4983 19.1072C11.9823 19.1072 12.2596 19.599 12.2596 20.1747C12.2596 20.796 11.9833 21.2572 11.5 21.2572Z" fill="#C7C6C5"/>
<path d="M14.9715 19.7566L14.3152 18.5847H13.4824V21.7793H14.1386V20.8191C14.1386 20.2974 14.1296 19.8453 14.1074 19.422L14.123 19.4205C14.2763 19.7951 14.4837 20.2045 14.6722 20.5491L15.3499 21.7793H16.0988V18.5847H15.4426V19.5161C15.4426 19.9989 15.4563 20.4283 15.5003 20.8506L15.4881 20.8521C15.3456 20.4912 15.1607 20.0913 14.9713 19.7564L14.9715 19.7566Z" fill="#C7C6C5"/>
<path d="M17.4503 18.5847L16.4854 21.7793H17.2245L17.4476 20.9591H18.3568L18.5998 21.7793H19.3701L18.3859 18.5847H17.4504H17.4503ZM17.5512 20.4209L17.7402 19.7427C17.7909 19.5572 17.8386 19.3147 17.8849 19.1268H17.8949C17.9433 19.3137 17.9994 19.5531 18.0537 19.742L18.2506 20.4209H17.551H17.5512Z" fill="#C7C6C5"/>
<path d="M19.7871 18.5847V21.7793H21.7599V21.174H20.502V18.5847H19.7871Z" fill="#C7C6C5"/>
<path d="M23.8575 18.5847L22.8926 21.7793H23.6317L23.8549 20.9591H24.764L25.0071 21.7793H25.7773L24.7931 18.5847H23.8577H23.8575ZM23.9585 20.4209L24.1475 19.7427C24.1981 19.5572 24.2458 19.3147 24.2922 19.1268H24.3021C24.3505 19.3137 24.4067 19.5531 24.4609 19.742L24.6578 20.4209H23.9583H23.9585Z" fill="#C7C6C5"/>
<path d="M28.2407 20.8379C28.2407 20.3864 27.9815 20.0928 27.4218 19.8813C27.0117 19.7249 26.8366 19.6352 26.8366 19.4323C26.8366 19.269 26.9852 19.1233 27.2964 19.1233C27.6076 19.1233 27.8309 19.2146 27.9563 19.2751L28.1143 18.6959C27.9278 18.6075 27.6675 18.5351 27.3071 18.5351C26.5639 18.5351 26.1112 18.9492 26.1112 19.4939C26.1112 19.9606 26.4557 20.251 26.9833 20.44C27.3619 20.5749 27.5126 20.6904 27.5126 20.8867C27.5126 21.097 27.3386 21.2346 27.0102 21.2346C26.7044 21.2346 26.4071 21.1366 26.2178 21.034L26.0732 21.6308C26.2495 21.7309 26.608 21.8294 26.9663 21.8294C27.8366 21.8294 28.2408 21.3718 28.2408 20.8383L28.2407 20.8379Z" fill="#C7C6C5"/>
<path d="M30.769 20.8379C30.769 20.3864 30.5098 20.0928 29.9501 19.8813C29.54 19.7249 29.3649 19.6352 29.3649 19.4323C29.3649 19.269 29.5135 19.1233 29.8247 19.1233C30.1359 19.1233 30.3593 19.2146 30.4846 19.2751L30.6427 18.6959C30.4561 18.6075 30.1958 18.5351 29.8354 18.5351C29.0922 18.5351 28.6395 18.9492 28.6395 19.4939C28.6395 19.9606 28.9841 20.251 29.5117 20.44C29.8902 20.5749 30.0409 20.6904 30.0409 20.8867C30.0409 21.097 29.867 21.2346 29.5385 21.2346C29.2328 21.2346 28.9355 21.1366 28.7461 21.034L28.6016 21.6308C28.7778 21.7309 29.1363 21.8294 29.4946 21.8294C30.3649 21.8294 30.7692 21.3718 30.7692 20.8383L30.769 20.8379Z" fill="#C7C6C5"/>
<path d="M33.1986 19.1764V18.5847H31.251V21.7793H33.2662V21.1876H31.9657V20.4279H33.129V19.8419H31.9657V19.1764H33.1986Z" fill="#C7C6C5"/>
<path d="M36.3833 19.2415H36.3963C36.3946 19.7097 36.409 20.1704 36.4237 20.5574L36.4729 21.7793H37.1677L36.998 18.5848H36.0629L35.7272 19.6475C35.62 20.0033 35.5128 20.4247 35.4265 20.7945H35.4113C35.3407 20.4201 35.2431 20.0187 35.1433 19.6523L34.8349 18.5846H33.882L33.6797 21.7791H34.3411L34.4 20.5667C34.419 20.1689 34.4368 19.6758 34.4524 19.2413H34.4623C34.5406 19.6623 34.6457 20.1161 34.7476 20.4924L35.0883 21.727H35.6438L36.031 20.4814C36.1498 20.1044 36.2829 19.6504 36.3837 19.2415H36.3833Z" fill="#C7C6C5"/>
<path d="M39.9491 19.3689C39.9491 19.0757 39.7935 18.858 39.5722 18.7391C39.341 18.6035 39.073 18.5599 38.6373 18.5599C38.2792 18.5599 37.9027 18.5918 37.7148 18.6286V21.7655C37.8749 21.7892 38.1351 21.8125 38.4876 21.8125C39.1171 21.8125 39.4988 21.7099 39.7306 21.5218C39.9264 21.364 40.0594 21.1358 40.0594 20.8434C40.0594 20.4343 39.791 20.1561 39.4301 20.0604V20.0482C39.7862 19.9147 39.9493 19.6498 39.9493 19.3687L39.9491 19.3689ZM38.423 19.1072C38.4815 19.0951 38.5698 19.085 38.7261 19.085C39.0491 19.085 39.2312 19.213 39.2312 19.4556C39.2312 19.6982 39.0335 19.852 38.6548 19.852H38.423V19.1074V19.1072ZM38.6972 21.2783C38.5765 21.2783 38.4917 21.2769 38.423 21.2654V20.3674H38.6674C39.0238 20.3676 39.3074 20.4954 39.3074 20.8152C39.3074 21.1516 39.0219 21.2783 38.6972 21.2783Z" fill="#C7C6C5"/>
<path d="M40.5439 18.5847V21.7793H42.5167V21.174H41.2588V18.5847H40.5439Z" fill="#C7C6C5"/>
<path d="M43.9572 21.7793V20.4453L45.0003 18.5847H44.1946L43.8759 19.3526C43.7841 19.5789 43.7081 19.766 43.6377 19.9652H43.6283C43.5508 19.7537 43.4814 19.5828 43.3843 19.3534L43.0628 18.5847H42.2441L43.2426 20.4696V21.7793H43.9574H43.9572Z" fill="#C7C6C5"/>
<path d="M1.70194 25.7011C0.771006 25.7011 0.163086 26.4172 0.163086 27.3723C0.163086 28.3273 0.7147 29 1.6522 29C2.5897 29 3.20269 28.3668 3.20269 27.3186C3.20269 26.4349 2.67247 25.7011 1.70194 25.7011V25.7011ZM1.68749 28.4256C1.21057 28.4256 0.918717 27.9843 0.918717 27.3586C0.918717 26.733 1.20175 26.2756 1.6858 26.2756C2.16984 26.2756 2.44706 26.7673 2.44706 27.3431C2.44706 27.9644 2.17078 28.4256 1.68749 28.4256V28.4256Z" fill="#C7C6C5"/>
<path d="M5.73171 26.345V25.7533H3.80078V28.9479H4.5155V27.6634H5.65288V27.0774H4.5155V26.345H5.73171Z" fill="#C7C6C5"/>
<path d="M8.18835 25.7533H7.47363V28.9479H8.18835V25.7533Z" fill="#C7C6C5"/>
<path d="M10.6451 27.4514V27.4362C10.9169 27.3378 11.2033 27.0558 11.2033 26.6511C11.2033 26.3573 11.0995 26.1328 10.9107 25.9814C10.6851 25.8007 10.3564 25.7283 9.88757 25.7283C9.50732 25.7283 9.16704 25.7579 8.9375 25.7969V28.9477H9.64583V27.6934H9.85848C10.1528 27.6972 10.2855 27.8037 10.3735 28.2031C10.4634 28.5985 10.5424 28.8553 10.5908 28.9477H11.3226C11.2607 28.824 11.1652 28.4076 11.0676 28.0461C10.9878 27.7525 10.8645 27.5407 10.6451 27.4512V27.4514ZM9.92568 27.1709H9.64565V26.2909C9.69613 26.278 9.79636 26.2667 9.96753 26.2667C10.2941 26.2686 10.4925 26.418 10.4925 26.7106C10.4925 27.0032 10.2804 27.1709 9.92568 27.1709Z" fill="#C7C6C5"/>
<path d="M12.6231 25.7533L11.6582 28.9479H12.3973L12.6205 28.1276H13.5296L13.7727 28.9479H14.543L13.5587 25.7533H12.6233H12.6231ZM12.7241 27.5894L12.9131 26.9115C12.9638 26.726 13.0114 26.4834 13.0578 26.2955H13.0677C13.1162 26.4823 13.1723 26.7218 13.2265 26.9107L13.4234 27.5896H12.7239L12.7241 27.5894Z" fill="#C7C6C5"/>
<path d="M17.7084 25.7533H17.0522V26.6846C17.0522 27.1675 17.0659 27.5968 17.1098 28.0192L17.0976 28.0207C16.9552 27.6598 16.7703 27.2598 16.5809 26.9249L15.9246 25.7531H15.0918V28.9477H15.748V27.9875C15.748 27.4658 15.7389 27.0137 15.7168 26.5904L15.7324 26.5889C15.8857 26.9634 16.0931 27.3729 16.2815 27.7174L16.9593 28.9477H17.7082V25.7531L17.7084 25.7533Z" fill="#C7C6C5"/>
<path d="M19.1698 25.7533H18.4551V28.9479H19.1698V25.7533Z" fill="#C7C6C5"/>
<path d="M20.6534 25.7533L19.6885 28.9479H20.4276L20.6508 28.1276H21.5599L21.803 28.9479H22.5732L21.589 25.7533H20.6536H20.6534ZM20.7544 27.5894L20.9434 26.9115C20.994 26.726 21.0417 26.4834 21.0881 26.2955H21.098C21.1464 26.4823 21.2026 26.7218 21.2568 26.9107L21.4537 27.5896H20.7542L20.7544 27.5894Z" fill="#C7C6C5"/>
<path d="M25.0825 26.6846C25.0825 27.1675 25.0962 27.5968 25.1401 28.0192L25.1279 28.0207C24.9854 27.6598 24.8006 27.2598 24.6112 26.9249L23.9548 25.7531H23.1221V28.9477H23.7782V27.9875C23.7782 27.4658 23.7692 27.0137 23.7471 26.5904L23.7626 26.5889C23.916 26.9634 24.1234 27.3729 24.3118 27.7174L24.9896 28.9477H25.7384V25.7531H25.0823V26.6845L25.0825 26.6846Z" fill="#C7C6C5"/>
<path d="M28.8914 27.7736V25.7533H28.1767V27.7652C28.1767 28.2621 27.9877 28.3979 27.688 28.3979C27.55 28.3979 27.4209 28.3729 27.3233 28.3423L27.2432 28.9236C27.3843 28.9735 27.6001 28.9998 27.7664 28.9998C28.4601 28.9998 28.8916 28.6803 28.8916 27.7736H28.8914Z" fill="#C7C6C5"/>
<path d="M31.4787 27.5906C31.4787 28.1565 31.2725 28.4241 30.8969 28.4241C30.5213 28.4241 30.3241 28.1424 30.3241 27.5906V25.7533H29.6094V27.5375C29.6094 28.5526 30.075 29 30.8731 29C31.6711 29 32.1936 28.5316 32.1936 27.5462V25.7535H31.4789V27.5908L31.4787 27.5906Z" fill="#C7C6C5"/>
<path d="M34.647 27.4514V27.4362C34.9188 27.3378 35.2052 27.0558 35.2052 26.6511C35.2052 26.3573 35.1014 26.1328 34.9126 25.9814C34.687 25.8007 34.3584 25.7283 33.8895 25.7283C33.5093 25.7283 33.169 25.7579 32.9395 25.7969V28.9477H33.6478V27.6934H33.8604C34.1547 27.6972 34.2874 27.8037 34.3755 28.2031C34.4654 28.5985 34.5444 28.8553 34.5928 28.9477H35.3246C35.2627 28.824 35.1671 28.4076 35.0695 28.0461C34.9898 27.7525 34.8664 27.5407 34.647 27.4512V27.4514ZM33.9276 27.1709H33.6476V26.2909C33.6981 26.278 33.7983 26.2667 33.9695 26.2667C34.2961 26.2686 34.4944 26.418 34.4944 26.7106C34.4944 27.0032 34.2824 27.1709 33.9276 27.1709Z" fill="#C7C6C5"/>
<path d="M36.5633 25.7533H35.8486V28.9479H36.5633V25.7533Z" fill="#C7C6C5"/>
<path d="M38.539 27.0499C38.1289 26.8934 37.9538 26.8037 37.9538 26.6008C37.9538 26.4375 38.1024 26.2919 38.4136 26.2919C38.7248 26.2919 38.9481 26.3831 39.0735 26.4436L39.2315 25.8644C39.045 25.7761 38.7846 25.7036 38.4243 25.7036C37.681 25.7036 37.2283 26.1178 37.2283 26.6625C37.2283 27.1292 37.5729 27.4195 38.1005 27.6086C38.4791 27.7434 38.6298 27.8589 38.6298 28.0552C38.6298 28.2655 38.4558 28.4032 38.1274 28.4032C37.8216 28.4032 37.5243 28.3052 37.3349 28.2026L37.1904 28.7994C37.3667 28.8995 37.7252 28.9979 38.0834 28.9979C38.9538 28.9979 39.358 28.5403 39.358 28.0068C39.358 27.5553 39.0988 27.2617 38.5392 27.0503L38.539 27.0499Z" fill="#C7C6C5"/>
<path d="M39.7285 26.3596H40.5817V28.9479H41.2966V26.3596H42.1619V25.7533H39.7285V26.3596Z" fill="#C7C6C5"/>
<path d="M44.6723 28.0065C44.6723 27.5549 44.4131 27.2613 43.8534 27.0499C43.4433 26.8934 43.2682 26.8037 43.2682 26.6008C43.2682 26.4375 43.4169 26.2919 43.728 26.2919C44.0392 26.2919 44.2626 26.3831 44.388 26.4436L44.546 25.8644C44.3594 25.7761 44.0991 25.7036 43.7387 25.7036C42.9955 25.7036 42.5428 26.1178 42.5428 26.6625C42.5428 27.1292 42.8874 27.4195 43.415 27.6086C43.7935 27.7434 43.9443 27.8589 43.9443 28.0552C43.9443 28.2655 43.7703 28.4032 43.4418 28.4032C43.1361 28.4032 42.8388 28.3052 42.6494 28.2026L42.5049 28.7994C42.6811 28.8995 43.0396 28.9979 43.3979 28.9979C44.2682 28.9979 44.6725 28.5403 44.6725 28.0068L44.6723 28.0065Z" fill="#C7C6C5"/>
</g>
<defs>
<clipPath id="clip0_62_2381">
<rect width="45" height="29" fill="white"/>
</clipPath>
</defs>
</svg>
