<svg width="51" height="54" viewBox="0 0 51 54" fill="none" xmlns="http://www.w3.org/2000/svg">
<g clip-path="url(#clip0_62_2330)">
<path d="M29.9173 24.7354C29.3443 23.6511 28.2169 23.3326 28.2169 23.3326C28.2332 23.548 28.2448 23.7635 28.2518 23.9742C28.3357 26.7845 27.5693 29.1077 27.001 29.8454C31.2915 31.8501 31.3591 36.3232 31.3591 36.3232C31.3591 36.3232 33.8864 31.0047 30.9282 27.274C30.3691 26.5691 29.8846 25.9555 29.9149 24.7354H29.9173Z" fill="#0B1D44"/>
<path d="M25.3145 38.9063C25.361 38.8923 25.4076 38.8782 25.4542 38.8618C25.4449 38.9087 25.4356 38.9555 25.4286 39.0047C25.3913 38.9719 25.3517 38.9391 25.3145 38.9063V38.9063Z" fill="#0B1D44"/>
<path d="M27.549 29.8431C27.5676 29.8759 27.6072 29.918 27.6002 29.9391C27.57 30.0117 27.5071 29.9906 27.4512 29.9625C27.4838 29.9227 27.5164 29.8829 27.549 29.8431V29.8431Z" fill="#0B1D44"/>
<path d="M21.614 40.63C21.614 40.63 21.6117 40.6323 21.6094 40.6346C21.614 40.6346 21.6187 40.6393 21.6233 40.6416L21.614 40.6323V40.63Z" fill="#0B1D44"/>
<path d="M12.4078 50.1616C12.0095 51.0632 11.6089 53.3583 7.92857 52.4543C7.02014 52.1874 5.57365 50.9274 5.27317 50.3794C4.79333 49.5012 4.68153 48.466 5.48979 47.8712C6.23284 47.3232 8.7741 45.6979 9.54743 45.096C10.6538 44.0515 10.8425 42.0141 8.9488 40.9321C8.18945 40.4988 7.21813 40.4473 7.21813 40.4473C7.21813 40.4473 6.01156 39.3326 4.6955 39.7635C3.71487 40.0843 3.62402 41.0796 3.21174 41.5246C2.58749 42.1944 2.07271 42.3583 1.4834 42.103C1.65577 42.5433 2.17753 42.9766 2.88098 42.9321C3.58443 42.8899 3.83133 42.644 3.83133 42.644C3.83133 42.644 3.638 43.1031 3.41206 43.2201C3.8127 43.637 5.34538 43.2951 6.0628 42.6675C6.63348 42.171 7.06207 41.1733 7.06207 41.1733C7.06207 41.1733 8.51555 40.6768 9.50317 42.4216C10.0506 43.3864 9.51482 44.1686 8.70423 44.6675C7.88664 45.171 5.75533 46.5504 4.99365 47.1499C3.50756 48.3162 4.11784 50.3162 5.13108 51.4426C5.86714 52.26 7.53259 53.5129 9.21201 53.8782C11.5576 54.3864 12.9599 53.2482 13.4257 52.1499C12.5662 50.9696 12.4125 50.1663 12.4125 50.1663L12.4078 50.1616Z" fill="#0B1D44"/>
<path d="M24.5534 29.5597C24.5534 29.5597 23.3911 29.4122 22.2987 29.6253C21.2062 29.8408 20.4678 30.267 20.4678 30.267C20.4678 30.267 19.7667 31.8244 19.1005 32.8829C18.4343 33.9415 17.088 35.7775 15.4202 37.548C13.7548 39.3185 12.66 41.3653 12.3805 42.7049C12.101 44.0445 12.0078 46.7424 12.0078 46.7424C12.0078 46.7424 12.3409 42.1405 14.5002 40.5223C16.5406 38.993 17.8101 38.9906 19.1797 39.1546C22.6597 39.5691 22.874 43.0023 22.874 43.0023L24.2739 42.7869C24.2739 42.7869 24.3135 41.6745 24.5534 40.829C24.7933 39.9836 25.4595 38.8314 25.4595 38.8314C25.4595 38.8314 22.9206 39.8361 21.2784 38.1335C20.0159 36.8244 19.5338 34.897 20.3677 32.7986C21.3669 30.2787 24.5534 29.555 24.5534 29.555V29.5597Z" fill="#0B1D44"/>
<path d="M20.1815 39.9204C20.1815 39.9204 16.9345 40.4145 15.0012 43.6206C12.4529 47.8478 13.0609 50.5176 13.0609 50.5176C13.0609 50.5176 11.2114 46.5808 13.4895 42.459C15.686 38.4848 20.1792 39.9204 20.1792 39.9204H20.1815Z" fill="#0B1D44"/>
<path d="M20.9198 40.2412C20.9198 40.2412 23.0302 42.4941 22.4595 45.1686C21.4206 50.0351 14.9801 53.7354 14.9801 53.7354L13.3799 51.4426C13.3799 51.4426 13.5523 46.8337 15.0989 44.3841C17.7194 40.2412 20.9175 40.2412 20.9175 40.2412H20.9198Z" fill="#0B1D44"/>
<path d="M15.2807 53.8548L17.2396 52.6276C17.2396 52.6276 18.1853 52.829 18.7327 52.7681C19.2801 52.7072 20.1582 52.3653 20.5984 52.5269C21.0387 52.6885 21.2996 53.0702 21.3392 53.2506C21.3788 53.4309 21.3392 53.9344 21.3392 53.9344L15.2783 53.8548H15.2807Z" fill="#0B1D44"/>
<path d="M17.7966 52.2459L17.4961 52.4567C17.4961 52.4567 18.5699 52.6464 19.1802 52.4965C19.7905 52.3466 20.8503 52.0281 21.3581 52.548C21.7867 52.9836 21.6399 53.9344 21.6399 53.9344H22.6648V53.0094C22.6648 53.0094 22.5577 51.3396 20.8806 51.733C20.5032 51.822 19.5762 52.2014 19.0358 52.2506C18.4954 52.2998 17.7966 52.2459 17.7966 52.2459Z" fill="#0B1D44"/>
<path d="M18.4021 51.7377L18.041 52.0562H19.0706C19.0706 52.0562 19.5644 52.0351 20.4099 51.7002C21.1506 51.4075 21.8261 51.3536 22.3502 51.8337C22.9675 52.4005 22.9395 52.8126 22.9395 52.8126L22.9349 53.9344H23.3332C23.3332 53.9344 23.4194 52.4778 23.1003 51.9836C22.7811 51.4895 22.1895 50.9789 21.5303 51.0679C20.8711 51.1592 19.8812 51.6464 19.5993 51.6885C19.3198 51.7307 18.3997 51.7354 18.3997 51.7354L18.4021 51.7377Z" fill="#0B1D44"/>
<path d="M24.1018 53.9344C24.1018 53.9344 24.2811 53.2389 24.7027 53.2084C25.122 53.1803 26.0537 53.1171 26.1818 53.2084C26.3099 53.2998 26.9715 53.8735 27.0716 53.8923C27.1718 53.911 32.3824 53.9321 32.3824 53.9321C32.3824 53.9321 31.7768 52.74 30.9336 52.2318C29.7131 51.4988 28.5437 51.5386 28.5437 51.5386C28.5437 51.5386 27.4839 50.6932 27.3931 49.3864C27.3022 48.0796 27.3535 47.5878 27.4536 47.2248C27.5538 46.8618 27.7541 44.8314 27.2929 44.1475C26.834 43.4637 26.0724 42.8197 25.4038 42.911C24.7353 43.0023 23.8735 43.4941 23.6336 44.5503C23.3937 45.6065 23.403 46.7213 23.8036 47.2435C24.2043 47.7658 24.4442 47.8969 24.4745 48.0679C24.5047 48.2389 24.3743 49.3747 24.6841 50.3911C24.9939 51.4075 25.3433 52.1194 25.3433 52.1194C25.3433 52.1194 24.6631 52.1803 24.2741 52.4801C23.8851 52.7798 23.8339 52.9953 23.8642 53.2459C23.8945 53.4965 24.1041 53.9297 24.1041 53.9297L24.1018 53.9344Z" fill="#0B1D44"/>
<path d="M29.5801 51.4215C29.5801 51.4215 31.5134 51.8243 32.0189 52.6674C32.5266 53.5129 32.699 53.9344 32.699 53.9344H33.5795C33.5795 53.9344 33.3535 52.7752 32.4335 52.1452C31.5134 51.5152 29.5801 51.4215 29.5801 51.4215V51.4215Z" fill="#0B1D44"/>
<path d="M27.8401 44.5644C27.8401 44.5644 29.9807 42.1405 30.5001 40.452C31.0196 38.7635 31.341 36.2717 30.2765 33.8431C29.2493 31.5012 25.0798 27.185 21.3809 32.1476C20.0183 33.9743 20.2 36.6019 21.3204 37.6675C22.4407 38.733 23.8407 39.096 24.9005 38.7729L25.9603 38.452C25.9603 38.452 25.4153 39.7448 25.0798 40.6042C24.7304 41.4988 24.6606 42.6558 24.6606 42.6558C24.6606 42.6558 25.9696 42.2225 26.8198 42.9087C27.4883 43.4473 27.8401 44.5668 27.8401 44.5668V44.5644Z" fill="#0B1D44"/>
<path d="M12.7809 40.63C13.7592 38.6464 17.1646 34.5597 17.7935 33.822C21.8255 29.1007 17.2811 26.1429 12.909 20.2155C8.53921 14.2881 5.95602 10.4028 4.78438 6.95082C3.9668 4.54098 2.97684 0 2.97684 0C2.97684 0 0.307467 6.23419 3.23074 11.8244C6.15634 17.4169 12.9253 25.6862 12.9253 25.6862C12.9253 25.6862 8.40877 21.5761 6.08879 18.3138C3.77114 15.0515 0.768669 9.85012 0.768669 9.85012C0.768669 9.85012 -0.724412 15.5105 4.53747 20.8782C9.79936 26.2459 12.1776 28.3583 12.1776 28.3583C12.1776 28.3583 9.25198 27.1663 6.36365 24.4988C3.47531 21.8314 0 17.2225 0 17.2225C0 17.2225 0.575337 22.904 4.16013 26.0187C7.74492 29.1335 11.2691 31.1522 11.2691 31.1522C11.2691 31.1522 8.91656 30.7728 6.30075 29.1124C3.68495 27.452 1.33469 25.918 1.33469 25.918C1.33469 25.918 2.91861 29.8946 5.90477 31.4028C8.89093 32.911 11.4671 33.8009 11.4671 33.8009C11.4671 33.8009 9.58041 34.2623 7.96853 33.5761C6.35666 32.8923 4.05764 31.9508 4.05764 31.9508C4.05764 31.9508 5.46919 34.2951 7.98717 35.7728C10.5075 37.2506 13.086 37.3021 13.086 37.3021C13.086 37.3021 12.0052 38.5714 11.544 40.4684C10.8382 43.3677 11.7909 46.9883 11.7909 46.9883C11.7909 46.9883 11.4322 43.3583 12.7785 40.63H12.7809Z" fill="#0B1D44"/>
<path d="M36.2791 30.6159C36.9919 28.7962 40.4649 27.3138 41.4013 28.0585C42.3772 28.8337 43.0993 27.6323 43.0993 27.6323C43.0993 27.6323 41.6062 28.0258 41.4455 26.2412C41.3966 25.7026 41.4106 25.1709 40.9005 24.7986C40.1714 25.8969 37.4647 27.6557 32.6897 30.7611C32.8807 31.6065 32.5359 34.7377 32.0957 36.0047C33.4956 35.8243 35.7923 31.8501 36.2745 30.6183L36.2791 30.6159Z" fill="#0B1D44"/>
<path d="M42.7358 27.3817C44.576 27.3044 43.7304 25.3958 43.7304 25.3958C43.1248 26.9157 41.7715 26.4239 41.7715 26.4239C41.7715 26.4239 41.86 27.4192 42.7358 27.3817Z" fill="#0B1D44"/>
<path d="M42.7358 25.5714C44.576 25.4941 43.7304 23.5855 43.7304 23.5855C43.1248 25.1054 41.7715 24.6136 41.7715 24.6136C41.7715 24.6136 41.86 25.6089 42.7358 25.5714Z" fill="#0B1D44"/>
<path d="M43.7304 21.7049C43.1248 23.2248 41.7715 22.733 41.7715 22.733C41.7715 22.733 41.86 23.7283 42.7358 23.6909C44.576 23.6136 43.7304 21.7049 43.7304 21.7049Z" fill="#0B1D44"/>
<path d="M43.3016 27.911C43.3016 27.911 43.0314 28.6393 42.2441 28.7049V31.0913H43.3016V27.9087V27.911Z" fill="#0B1D44"/>
<path d="M42.2441 23.9719V24.4051C42.2628 24.4051 42.2814 24.4098 42.3024 24.4098C42.5959 24.4098 42.894 24.2646 43.106 24.0445C42.9988 24.0726 42.8894 24.089 42.7822 24.089C42.7612 24.089 42.7426 24.089 42.7216 24.089C42.5516 24.0796 42.3932 24.0398 42.2465 23.9742L42.2441 23.9719Z" fill="#0B1D44"/>
<path d="M42.2441 25.8853V26.1499C42.2628 26.1499 42.2837 26.1546 42.3024 26.1546C42.4887 26.1546 42.6751 26.096 42.8428 25.9977C42.8218 25.9977 42.8032 26 42.7822 26C42.7612 26 42.7403 26 42.7216 26C42.5516 25.9906 42.3932 25.9532 42.2465 25.8853H42.2441Z" fill="#0B1D44"/>
<path d="M42.2441 20.7471V22.4918C42.2628 22.4918 42.2814 22.4965 42.3024 22.4965C42.7077 22.4965 43.1153 22.2248 43.3016 21.8571V20.7471H43.2807" fill="#0B1D44"/>
<path d="M49.9819 43.7986L48.1813 32.0422L48.533 32.0468C48.7124 32.0468 48.915 31.8595 49.0105 31.5831C49.12 31.2646 49.0501 30.9532 48.8545 30.8829C48.6588 30.815 48.4096 31.0164 48.3001 31.3325C48.2675 31.4262 48.2512 31.5644 48.2628 31.6745C47.96 31.7705 47.1611 30.9649 47.019 30.7564H38.5101C38.368 30.9649 37.569 31.7705 37.2662 31.6745C37.2755 31.5667 37.2616 31.4286 37.229 31.3325C37.1195 31.014 36.8702 30.8126 36.6746 30.8829C36.4789 30.9508 36.409 31.2646 36.5185 31.5831C36.614 31.8595 36.8143 32.0492 36.996 32.0468L37.3477 32.0422L35.5472 43.7986H34.5293C35.1372 44.9087 36.2576 45.6557 37.5388 45.6557C38.8199 45.6557 39.9379 44.911 40.5482 43.7986H39.5419L37.7414 32.0375H37.8322C37.8322 32.0375 39.2135 30.8829 39.6351 31.4848C39.8937 31.9672 40.5296 32.3677 41.2819 32.5176C41.3774 32.5363 41.4753 32.5503 41.5731 32.5621C41.5801 32.5621 41.5894 32.5621 41.5964 32.5621C41.636 32.5667 41.6756 32.5691 41.7129 32.5714C41.7245 32.5714 41.7361 32.5714 41.7478 32.5714C41.7944 32.5738 41.841 32.5761 41.8899 32.5761L42.8728 32.1054L42.987 32.1756L43.6508 32.5761C43.6951 32.5761 43.7393 32.5738 43.7859 32.5714C43.7976 32.5714 43.8069 32.5714 43.8185 32.5714C43.8628 32.5691 43.9071 32.5644 43.9513 32.5574C43.9979 32.5504 44.0468 32.5433 44.0934 32.5363C44.1004 32.5363 44.1074 32.534 44.1167 32.5316C44.1633 32.5222 44.2099 32.5129 44.2564 32.5035C44.9366 32.3489 45.5958 31.9696 45.88 31.5012C45.88 31.5012 45.88 31.5012 45.8823 31.4965C46.2923 30.8595 47.6968 32.0328 47.6968 32.0328H47.7877L45.9871 43.7962H44.9809C45.5888 44.9063 46.7092 45.6534 47.9903 45.6534C49.2714 45.6534 50.3895 44.9087 50.9998 43.7962H49.9819V43.7986ZM37.4828 43.7986H35.6753L37.4759 32.0422H37.4828V43.7986V43.7986ZM39.4232 43.7986H37.604V32.0398H37.6436L37.6226 32.0422L39.4232 43.7986V43.7986ZM47.9321 43.7986H46.1129L47.9134 32.0422H47.8925L47.9321 32.0398V43.7986V43.7986ZM48.0532 43.7986V32.0422H48.0602L49.8607 43.7986H48.0532V43.7986Z" fill="#0B1D44"/>
<path d="M43.5951 32.7986L42.9918 32.4333L42.8986 48.3443H42.7472L42.6936 32.4379L41.9436 32.7963H41.918C41.7107 32.7963 41.4987 32.7752 41.2891 32.733C41.3496 35.4028 41.6222 46.3185 42.1346 50.1335C42.2441 50.9532 42.8241 53.3794 42.8241 53.3794C42.8241 53.3794 43.4204 50.9485 43.5299 50.1241C44.0353 46.3091 44.2193 35.3794 44.2566 32.7237C44.0446 32.7682 43.8303 32.7939 43.623 32.7939H43.5927L43.5951 32.7986Z" fill="#0B1D44"/>
<path d="M34.5529 14.9251C34.3014 14.5691 32.8362 14.5058 31.4992 15.2155C28.9929 16.5457 27.2995 18.0258 28.6481 18.3232C28.9975 18.4005 29.8757 18.8197 30.8167 17.7705C31.0776 17.4801 31.5877 17.1686 32.8479 16.7377C34.1104 16.3068 34.8022 15.2787 34.5506 14.9251H34.5529ZM32.8269 16.103C31.8812 16.3817 31.0473 16.3841 30.9658 16.103C30.8843 15.822 31.5854 15.3724 32.5311 15.0937C33.4768 14.815 34.3107 14.8126 34.3922 15.0937C34.4737 15.3747 33.7726 15.8244 32.8269 16.103Z" fill="#0B1D44"/>
<path d="M33.8008 26.5902C33.8008 26.5902 34.7162 26.4918 35.0958 25.6698C35.4755 24.8478 35.4895 23.9157 35.4895 23.9157C35.4895 23.9157 34.9421 24.2342 34.2503 24.2131C33.5538 24.192 32.6943 23.9157 32.6943 23.9157C32.6943 23.9157 33.5352 24.8782 33.7169 25.3091C33.8986 25.74 33.9987 26.0515 33.9289 26.2225C33.859 26.3934 33.8031 26.5902 33.8031 26.5902H33.8008Z" fill="#0B1D44"/>
<path d="M32.7266 23.7166C33.996 24.4286 35.4635 23.7166 35.4635 23.7166C35.4635 23.7166 35.8269 22.7354 35.1956 22.1452C34.8229 22.6792 34.4689 23.3747 32.7266 23.7143V23.7166Z" fill="#0B1D44"/>
<path d="M31.1027 24.3489C31.1027 24.3489 31.4311 23.7424 32.1532 24.2108C32.6307 24.5199 33.1245 24.904 33.1245 24.904C33.1245 24.904 32.7192 24.2061 32.0833 23.7283C30.2222 22.3326 30.2455 23.6464 30.2455 23.6464C30.2455 23.6464 30.1966 24.541 30.2362 24.9485C30.2921 25.5433 30.4877 26.1382 30.4877 26.1382C30.4877 26.1382 31.2098 26.007 31.5895 26.1616C31.9692 26.3162 32.265 26.6136 32.4909 26.644C32.7169 26.6721 32.8986 26.644 32.8986 26.644C32.8986 26.644 32.7448 25.8478 32.1252 25.2389C31.9016 25.0211 31.487 24.6651 31.1027 24.3466V24.3489Z" fill="#0B1D44"/>
<path d="M30.3274 15.6885C30.3274 15.6885 25.4615 15.2365 22.8713 19.7026C22.3775 20.5527 21.8953 21.5035 21.5436 22.5902C20.952 24.4169 20.4256 26.3302 20.4209 26.3934L20.5187 29.5012C20.5234 29.4403 21.0195 26.0187 22.1935 22.8033C22.5662 21.7845 22.9505 20.8525 23.4467 20.0749C24.0756 19.089 24.8279 18.3232 25.6851 17.7986C26.6425 17.2131 27.7326 16.9766 28.6899 16.7845C29.0393 16.4333 30.3274 15.6885 30.3274 15.6885V15.6885Z" fill="#0B1D44"/>
<path d="M33.3015 16.7307C32.9498 16.8525 32.2207 17.2061 31.9668 17.3162C33.5461 17.9532 34.5546 18.904 34.5989 18.9438L35.4887 18.192C35.3885 18.096 34.5919 17.3653 33.3015 16.7307V16.7307Z" fill="#0B1D44"/>
<path d="M42.7757 21.541C43.3546 21.541 43.8239 21.0692 43.8239 20.4871C43.8239 19.9051 43.3546 19.4333 42.7757 19.4333C42.1968 19.4333 41.7275 19.9051 41.7275 20.4871C41.7275 21.0692 42.1968 21.541 42.7757 21.541Z" fill="#0B1D44"/>
<path d="M35.2568 20.6745C33.5121 20.0515 29.0072 18.7564 26.0374 17.918C25.0894 18.4707 24.2881 19.4543 24.2881 19.4543L34.544 22.6511C34.9446 22.452 35.3895 21.37 35.2568 20.6745V20.6745Z" fill="#0B1D44"/>
<path d="M30.5957 19.007L35.2124 20.4262C35.2124 20.4262 35.2799 19.6019 34.1479 18.7822C33.4957 18.3115 32.727 18.1124 31.9607 18.2365C31.2502 18.3513 30.5957 19.007 30.5957 19.007V19.007Z" fill="#0B1D44"/>
<path d="M29.5548 21.349L27.7822 20.7963C27.9103 21.267 28.0105 21.733 28.085 22.1944C28.1176 22.4052 28.1479 22.6159 28.1712 22.822C28.6161 22.9344 29.6457 23.5855 29.9252 24.2365C29.9694 24.0586 29.9927 23.8197 30.0021 23.5972C30.0021 23.5925 30.0021 23.5878 30.0021 23.5855C30.0184 22.0632 31.6815 23.1241 32.4175 23.3443C33.1536 23.5644 34.3578 22.8431 34.3578 22.8431L29.5548 21.3466V21.349Z" fill="#0B1D44"/>
<path d="M32.8642 18.0468C32.5288 17.7705 32.1608 17.5621 31.7718 17.4052C31.3921 17.5831 31.1405 17.7518 30.9868 17.9227C30.5745 18.3841 30.1133 18.6393 29.6172 18.6885C29.8711 18.7611 30.5442 18.993 30.7958 19.0679C31.1871 18.4707 31.7042 17.9602 32.8642 18.0468Z" fill="#0B1D44"/>
<path d="M27.9495 17.993C27.9145 17.7401 28.0496 17.4497 28.3571 17.1101C27.3788 17.2553 26.3143 17.7283 26.3353 17.7611C26.8198 17.8993 27.5139 18.0867 28.0473 18.2389C27.9867 18.1569 27.9588 18.0703 27.9495 17.993V17.993Z" fill="#0B1D44"/>
<path d="M27.3412 20.6581L24.1291 19.6581C22.3798 21.8923 20.6631 29.7026 20.6631 29.7026C20.6631 29.7026 22.3285 29.2201 23.5235 29.0773C24.7603 28.9297 26.5026 29.548 26.5026 29.548C26.5026 29.548 28.203 26.2295 27.5974 21.7213C27.5532 21.3888 27.4577 21.0258 27.3389 20.6604L27.3412 20.6581Z" fill="#0B1D44"/>
</g>
<defs>
<clipPath id="clip0_62_2330">
<rect width="51" height="54" fill="white"/>
</clipPath>
</defs>
</svg>
