<?xml version="1.0" standalone="no"?>
<!DOCTYPE svg PUBLIC "-//W3C//DTD SVG 20010904//EN"
 "http://www.w3.org/TR/2001/REC-SVG-20010904/DTD/svg10.dtd">
<svg version="1.0" xmlns="http://www.w3.org/2000/svg"
 width="924.000000pt" height="924.000000pt" viewBox="0 0 924.000000 924.000000"
 preserveAspectRatio="xMidYMid meet">
<metadata>
Created by potrace 1.14, written by Peter Selinger 2001-2017
</metadata>
<g transform="translate(0.000000,924.000000) scale(0.100000,-0.100000)"
fill="#000000" stroke="none">
<path d="M733 9218 c-13 -21 -57 -157 -68 -214 -3 -12 -11 -40 -20 -63 -8 -23
-14 -44 -14 -46 0 -3 -2 -18 -5 -33 -13 -57 -17 -78 -22 -102 -2 -14 -9 -47
-14 -75 -5 -27 -12 -72 -15 -100 -3 -27 -8 -75 -12 -105 -8 -74 -8 -463 1
-520 3 -25 9 -63 12 -85 4 -36 18 -117 30 -171 2 -12 16 -62 30 -110 15 -49
29 -99 31 -111 3 -13 10 -23 16 -23 6 0 8 -3 4 -6 -10 -10 61 -169 133 -299
18 -33 38 -69 44 -80 6 -11 17 -28 25 -37 8 -10 10 -18 6 -18 -4 0 -1 -8 7
-17 8 -10 37 -55 64 -101 27 -45 60 -100 74 -122 100 -160 144 -225 151 -228
5 -2 9 -8 9 -13 0 -5 20 -38 45 -75 25 -36 45 -69 45 -74 0 -4 4 -10 8 -12 4
-1 32 -39 62 -83 30 -44 63 -89 73 -99 9 -11 17 -23 17 -28 0 -4 7 -16 15 -25
12 -16 161 -220 314 -432 25 -35 51 -69 57 -75 5 -6 30 -38 54 -71 24 -33 46
-62 50 -65 3 -3 17 -21 30 -40 14 -19 30 -42 37 -50 7 -8 51 -64 98 -125 47
-60 91 -117 98 -125 7 -9 56 -70 110 -138 54 -67 94 -122 89 -122 -4 0 -69 60
-145 133 -75 72 -137 131 -137 131 0 -2 -275 277 -317 322 -83 89 -212 231
-239 264 -16 19 -35 41 -42 49 -35 37 -178 219 -241 307 -39 54 -75 104 -79
109 -34 41 -402 611 -471 727 -9 15 -47 78 -86 140 -38 62 -77 125 -85 139 -8
14 -46 79 -85 143 -38 65 -79 133 -89 152 -35 61 -46 4 -51 -266 -4 -178 5
-282 35 -425 6 -27 13 -61 16 -75 40 -191 171 -487 303 -683 25 -39 51 -77 56
-85 20 -30 109 -143 160 -202 40 -47 849 -854 1002 -1000 135 -130 349 -330
381 -359 39 -33 23 -30 -52 9 -41 21 -77 36 -80 33 -3 -4 -6 -2 -6 4 0 6 -15
17 -32 24 -44 18 -282 160 -286 171 -2 4 -9 8 -16 8 -7 0 -21 8 -32 19 -11 10
-30 24 -43 30 -12 7 -30 19 -39 26 -9 8 -55 42 -102 76 -47 35 -87 66 -90 69
-3 3 -32 27 -65 55 -96 80 -131 113 -259 240 -97 97 -266 274 -321 339 -5 6
-42 47 -81 91 -38 44 -93 108 -121 142 -76 92 -76 92 -106 124 -15 16 -27 34
-27 39 0 4 -3 10 -8 12 -6 3 -98 113 -174 209 -14 19 -40 51 -57 73 -17 21
-31 42 -31 46 0 4 -6 10 -14 13 -10 4 -13 -1 -12 -16 4 -34 21 -131 31 -177 3
-14 7 -34 9 -45 3 -11 12 -47 21 -80 9 -33 18 -67 20 -75 26 -96 41 -142 79
-240 24 -63 50 -128 57 -145 7 -16 13 -32 14 -35 9 -27 57 -119 96 -188 27
-47 49 -89 49 -93 0 -5 4 -9 8 -9 5 0 15 -12 23 -27 44 -87 224 -290 340 -386
137 -112 334 -270 389 -309 36 -26 71 -52 77 -58 7 -6 55 -40 105 -75 51 -36
99 -70 106 -76 7 -6 46 -32 85 -59 40 -26 121 -79 180 -119 59 -39 110 -71
113 -71 3 0 25 -13 49 -30 24 -16 49 -30 55 -30 6 0 8 -5 5 -10 -4 -6 -11 -8
-16 -5 -5 4 -17 8 -26 10 -45 8 -149 38 -164 45 -9 5 -27 11 -40 14 -22 4
-124 42 -224 84 -74 31 -290 144 -293 153 -2 5 -10 9 -17 9 -8 0 -20 6 -27 13
-18 16 -46 34 -78 49 -14 7 -27 15 -30 18 -3 3 -30 22 -60 41 -128 83 -352
225 -368 234 -10 6 -42 26 -72 46 -94 62 -227 147 -248 158 -20 11 -19 7 6
-46 36 -75 97 -188 124 -233 39 -63 112 -175 118 -180 3 -3 32 -39 65 -80 99
-125 221 -238 335 -314 54 -36 222 -127 240 -131 3 -1 32 -14 65 -29 33 -16
78 -36 100 -46 22 -10 65 -29 95 -43 30 -13 84 -37 120 -52 36 -15 83 -35 105
-45 22 -10 96 -39 165 -65 69 -26 136 -51 149 -56 13 -5 22 -12 19 -14 -17
-17 -307 -26 -399 -13 -68 10 -156 41 -359 125 -113 47 -227 94 -255 105 -27
10 -63 25 -80 33 -58 26 -158 65 -161 62 -4 -3 96 -139 143 -196 61 -72 232
-239 303 -295 70 -55 168 -126 174 -126 2 0 33 -17 67 -38 76 -45 241 -122
263 -122 8 0 17 -4 20 -9 3 -5 16 -11 28 -14 13 -3 61 -17 108 -31 47 -15 96
-29 110 -31 14 -2 45 -9 70 -14 77 -16 197 -32 243 -32 9 0 15 -3 13 -7 -3 -4
-29 -44 -60 -89 -124 -184 -207 -409 -232 -633 -13 -113 -6 -466 11 -575 2
-16 7 -48 10 -70 5 -41 45 -248 48 -252 1 -1 2 69 2 155 1 180 11 324 32 432
2 14 6 34 8 45 11 58 16 82 21 97 3 9 7 25 9 35 15 65 38 139 46 147 5 6 9 16
9 24 0 16 75 174 100 212 41 61 95 146 99 155 2 5 8 14 13 20 5 5 31 42 58 80
71 100 76 107 169 229 83 108 290 369 327 413 11 11 33 38 51 60 17 21 41 49
53 63 12 14 31 38 43 53 12 15 32 40 45 55 32 38 34 41 75 102 20 30 37 59 37
64 0 5 6 17 13 25 34 41 85 196 93 284 3 29 6 66 8 82 1 17 0 34 -3 40 -3 5
-6 25 -7 45 -7 138 -93 336 -238 545 -59 85 -207 279 -225 295 -4 3 -18 21
-33 42 -15 20 -34 42 -41 50 -11 12 -236 283 -262 316 -5 7 -22 27 -37 43 -16
16 -28 32 -28 35 0 3 -9 15 -21 27 -11 12 -48 58 -81 102 -34 44 -65 82 -70
83 -4 2 -8 8 -8 13 0 8 -14 28 -45 63 -6 6 -39 52 -75 101 -35 50 -68 95 -73
100 -4 6 -29 39 -55 75 -26 36 -52 71 -59 78 -7 7 -13 16 -13 20 0 4 -14 23
-30 42 -16 19 -30 38 -30 42 0 4 -6 13 -13 20 -7 7 -48 64 -92 126 -44 62 -99
139 -121 171 -23 32 -103 149 -178 262 -74 112 -140 209 -146 216 -5 7 -10 14
-10 17 0 5 -62 108 -70 116 -6 6 -12 17 -115 195 -70 123 -181 338 -236 460
-29 64 -109 278 -114 305 -1 3 -13 43 -27 90 -39 125 -66 221 -73 255 -4 17
-9 37 -13 45 -3 8 -7 22 -8 30 -2 12 -22 88 -38 145 -2 6 -7 29 -11 53 -4 23
-12 45 -16 48 -5 3 -7 9 -4 14 3 5 1 19 -4 32 -5 14 -12 42 -15 62 -4 21 -8
41 -11 45 -4 7 -9 30 -20 86 -3 11 -14 58 -26 105 -12 47 -21 91 -22 98 0 6
-2 12 -3 12 -2 0 -6 -6 -11 -12z m1697 -4338 c0 -5 -2 -10 -4 -10 -3 0 -8 5
-11 10 -3 6 -1 10 4 10 6 0 11 -4 11 -10z"/>
<path d="M5928 6725 c-2 -2 -22 -6 -45 -10 -23 -3 -70 -15 -105 -26 -54 -18
-96 -38 -252 -120 -41 -22 -278 -181 -304 -205 -94 -84 -164 -181 -140 -195 5
-3 8 -10 6 -14 -8 -19 63 -55 115 -58 9 -1 17 -4 17 -7 0 -3 8 -6 18 -7 9 -1
26 -2 37 -4 35 -4 108 12 147 32 21 11 68 47 105 80 72 65 160 112 328 174 55
21 112 46 127 56 14 11 31 19 36 19 20 0 131 116 152 159 29 58 21 87 -32 111
-29 13 -65 18 -124 18 -45 0 -84 -1 -86 -3z m199 -46 c69 -37 -36 -126 -219
-184 -98 -32 -117 -35 -224 -40 -151 -7 -165 51 -30 130 49 28 191 81 246 90
19 3 48 8 65 11 16 3 30 6 31 7 7 7 112 -4 131 -14z"/>
<path d="M5270 6553 c-98 -11 -227 -33 -260 -45 -8 -3 -53 -17 -98 -32 -88
-28 -290 -123 -312 -146 -3 -3 -21 -17 -40 -30 -76 -52 -188 -153 -245 -222
-37 -44 -102 -133 -115 -158 -7 -14 -16 -27 -19 -30 -3 -3 -14 -21 -25 -40
-49 -92 -63 -116 -71 -130 -5 -8 -10 -17 -11 -20 -11 -37 -18 -50 -25 -50 -5
0 -9 -7 -9 -15 0 -8 -9 -30 -20 -50 -11 -19 -17 -35 -14 -35 4 0 0 -10 -8 -22
-13 -20 -74 -189 -83 -228 -2 -8 -12 -42 -24 -75 -11 -33 -29 -91 -40 -130
-11 -38 -29 -101 -41 -140 -12 -38 -23 -80 -26 -93 -2 -13 -12 -44 -21 -70
-13 -36 -16 -76 -14 -172 2 -69 4 -167 5 -217 0 -51 3 -93 6 -93 3 0 4 -19 2
-42 -3 -24 -2 -41 1 -38 5 4 24 94 31 145 2 11 6 34 9 50 4 17 9 41 11 55 2
14 10 48 16 75 6 28 13 59 16 70 2 11 7 34 11 50 4 17 7 32 8 35 1 3 5 21 9
40 4 19 19 76 33 125 14 50 26 95 27 100 1 6 11 37 21 70 10 33 20 66 22 72 7
29 10 39 17 58 5 11 12 31 16 45 4 14 11 34 16 45 4 11 8 25 10 32 3 15 51
138 70 180 8 17 14 34 14 38 0 23 134 279 173 330 4 6 26 35 49 65 95 126 244
252 375 319 86 43 261 103 343 116 14 2 35 7 48 10 12 3 32 7 44 10 11 2 31
13 42 23 27 25 205 142 215 142 5 0 14 6 20 14 10 12 1 14 -61 13 -40 -1 -84
-3 -98 -4z"/>
<path d="M5915 6360 c-22 -10 -71 -33 -110 -50 l-69 -32 49 -23 c28 -13 56
-24 63 -24 6 -1 12 -4 12 -9 0 -4 17 -15 38 -25 63 -30 93 -49 194 -125 l97
-72 27 22 c15 13 36 31 46 41 10 9 20 17 23 17 2 0 15 11 29 25 l24 24 -46 39
c-26 22 -78 60 -117 85 -38 26 -75 50 -80 54 -12 9 -134 73 -137 73 -2 -1 -21
-10 -43 -20z"/>
<path d="M5005 6291 c-85 -23 -235 -80 -235 -90 0 -4 28 -13 63 -20 34 -7 68
-17 75 -23 6 -6 12 -8 12 -5 0 3 15 1 33 -4 17 -6 39 -12 47 -14 8 -2 23 -6
33 -10 16 -7 17 -3 11 32 -4 30 -1 50 15 81 11 22 25 43 31 47 14 9 13 25 -2
24 -7 0 -45 -8 -83 -18z"/>
<path d="M5668 6247 c-16 -6 -28 -14 -28 -19 0 -4 -6 -8 -13 -8 -7 0 -42 -27
-77 -61 -62 -58 -148 -109 -183 -109 -16 0 -25 -19 -9 -21 18 -2 42 -8 112
-32 41 -14 109 -35 150 -47 94 -27 141 -41 160 -48 8 -3 20 -6 25 -8 6 -1 24
-7 40 -13 17 -6 93 -29 170 -52 157 -46 157 -46 167 -48 4 -1 26 -8 49 -16 55
-20 59 -19 59 8 0 39 -57 140 -104 187 -62 61 -152 118 -216 136 -30 9 -64 19
-75 23 -37 13 -187 3 -215 -14 -6 -3 -10 -2 -10 4 0 15 93 42 155 43 l57 2
-28 24 c-31 25 -138 83 -151 81 -4 -1 -20 -6 -35 -12z"/>
<path d="M4665 6143 c-89 -59 -244 -206 -245 -230 0 -7 3 -12 8 -11 4 1 48
-10 97 -26 50 -15 149 -46 220 -68 72 -22 148 -46 170 -53 22 -7 63 -20 90
-28 28 -8 115 -35 195 -60 80 -25 156 -48 170 -52 14 -3 34 -10 45 -15 11 -4
54 -18 95 -30 41 -13 104 -31 140 -42 36 -11 74 -23 85 -28 11 -4 54 -18 95
-30 41 -12 84 -24 95 -28 11 -3 22 -6 25 -7 12 -2 216 -68 221 -71 11 -6 55
43 77 88 31 62 43 97 49 148 11 89 10 93 -27 111 -34 17 -221 78 -250 82 -8 2
-21 6 -27 10 -7 5 -21 10 -30 12 -31 5 -136 36 -193 56 -30 10 -64 20 -75 22
-11 2 -27 7 -35 10 -8 3 -24 7 -35 10 -11 3 -114 33 -230 67 -115 33 -217 63
-225 65 -8 2 -87 24 -175 50 -88 25 -173 49 -190 52 -16 3 -38 9 -47 14 -28
15 -51 10 -93 -18z"/>
<path d="M7545 5907 c-135 -44 -172 -201 -72 -305 31 -32 31 -34 30 -122 -2
-87 -1 -90 21 -90 33 0 118 46 140 76 10 14 19 44 21 67 2 32 10 51 36 78 79
83 68 206 -25 267 -58 38 -99 46 -151 29z"/>
<path d="M4370 5861 c0 -5 -6 -16 -12 -23 -21 -22 -38 -50 -55 -90 -9 -21 -20
-38 -25 -38 -4 0 -8 -4 -8 -9 0 -4 -14 -39 -32 -77 -17 -38 -33 -73 -34 -79
-1 -5 -17 -46 -35 -90 -17 -44 -35 -89 -40 -100 -21 -55 -81 -229 -85 -250 -1
-5 -12 -39 -24 -75 -12 -36 -24 -76 -26 -89 -3 -13 -9 -31 -13 -40 -5 -9 -9
-19 -10 -23 -1 -5 -1 -9 -2 -10 0 -2 -2 -10 -4 -18 -7 -26 -13 -51 -60 -220
-24 -91 -46 -174 -48 -185 -1 -11 -5 -24 -9 -30 -4 -8 -16 -61 -23 -105 0 -3
-4 -11 -8 -17 -5 -7 -6 -13 -3 -13 3 0 1 -12 -5 -26 -5 -15 -12 -42 -15 -61
-5 -30 -3 -34 13 -29 10 3 29 7 43 10 14 2 46 11 73 19 26 8 47 13 47 11 0 -2
12 1 26 7 15 5 45 12 67 15 22 2 43 7 47 9 4 3 25 7 46 11 22 3 53 8 69 11 47
10 204 9 270 -1 33 -5 69 -10 80 -11 11 -1 27 -5 35 -8 23 -9 169 -47 179 -47
8 0 51 90 55 115 1 5 4 15 7 20 8 13 38 105 43 131 2 10 11 39 19 64 14 46 33
122 42 175 38 223 49 337 48 510 -2 189 -16 312 -49 441 -15 56 -19 63 -48 69
-34 8 -43 11 -51 15 -3 1 -8 3 -12 5 -5 1 -15 4 -23 7 -8 3 -62 20 -120 38
-58 17 -146 45 -197 61 -95 30 -133 36 -133 20z"/>
<path d="M5016 5673 c-3 -3 -1 -14 5 -24 5 -11 7 -19 5 -19 -3 0 -2 -10 3 -23
5 -13 12 -41 16 -63 4 -21 9 -48 11 -59 4 -19 13 -79 19 -120 1 -11 3 -22 4
-25 0 -4 16 -11 35 -18 84 -31 256 -172 256 -211 0 -9 3 -11 9 -5 5 5 12 45
16 88 7 94 28 132 80 142 37 7 117 -2 144 -16 45 -24 203 -80 212 -75 5 4 9 2
9 -2 0 -7 44 -9 60 -3 3 1 8 2 12 1 35 -5 243 84 217 93 -45 16 -206 68 -219
71 -8 2 -60 18 -115 35 -55 18 -120 38 -145 45 -25 7 -70 21 -100 31 -30 10
-58 19 -62 20 -5 1 -9 2 -10 4 -2 1 -10 3 -18 5 -8 2 -24 6 -35 9 -30 7 -214
65 -261 82 -23 8 -50 16 -60 19 -11 2 -33 8 -51 14 -17 5 -34 7 -37 4z"/>
<path d="M7737 5484 c-26 -54 -74 -100 -128 -124 -50 -21 -128 -28 -169 -15
-19 6 -20 4 -14 -22 19 -80 75 -132 145 -134 169 -6 245 90 209 266 -6 30 -15
57 -19 59 -4 3 -15 -10 -24 -30z"/>
<path d="M6268 5419 c-91 -120 -192 -187 -333 -220 -71 -17 -72 -20 -20 -40
28 -11 61 -22 75 -24 34 -7 156 -8 177 -1 10 3 32 8 48 10 119 21 136 39 135
146 0 65 -16 118 -44 146 -12 12 -17 9 -38 -17z"/>
<path d="M5467 5266 c-30 -32 -33 -50 -31 -201 1 -123 7 -178 28 -249 l12 -41
92 -1 c91 -1 93 -2 165 -46 54 -33 84 -45 119 -47 l47 -2 -21 53 c-42 111 -76
155 -215 277 -40 35 -73 67 -73 72 0 18 63 48 95 45 40 -4 61 -15 158 -83 43
-30 80 -53 82 -51 2 2 -12 21 -30 43 -127 149 -259 241 -362 252 -36 4 -46 1
-66 -21z"/>
<path d="M5092 5092 c0 -127 -7 -307 -12 -307 -1 0 -3 -13 -5 -30 -11 -83 -17
-117 -35 -195 -11 -47 -23 -97 -26 -112 -10 -51 -65 -193 -99 -254 l-33 -61
61 -33 c196 -105 390 -286 489 -455 108 -185 193 -441 192 -582 0 -13 3 -23 7
-23 7 0 87 210 94 250 1 3 11 46 23 95 24 103 30 131 38 200 22 189 18 379
-11 510 -42 186 -110 335 -215 470 -71 91 -125 175 -144 225 -23 57 -25 70
-32 154 -4 55 -12 79 -34 110 -52 76 -137 143 -223 180 l-36 14 1 -156z"/>
<path d="M7743 5170 c-3 -11 -9 -20 -14 -20 -5 0 -9 -6 -9 -13 0 -15 -64 -78
-97 -95 -41 -22 -129 -33 -174 -21 -22 6 -26 4 -24 -9 2 -10 4 -22 4 -27 2
-20 55 -95 67 -95 7 0 14 -5 16 -11 2 -6 31 -11 68 -12 163 -1 236 94 200 263
-13 61 -28 76 -37 40z"/>
<path d="M5876 5141 c-4 -5 1 -19 11 -30 10 -11 28 -32 41 -45 12 -14 22 -30
22 -36 0 -5 4 -10 8 -10 5 0 22 -21 39 -47 66 -106 87 -180 67 -239 -7 -21
-12 -39 -10 -41 5 -6 82 20 97 33 8 8 20 14 25 14 12 0 65 56 85 90 34 57 64
162 74 259 6 56 3 58 -46 37 -87 -36 -217 -36 -341 -1 -27 8 -48 11 -48 7 0
-4 -4 -1 -9 7 -6 9 -11 10 -15 2z"/>
<path d="M7502 5104 c1 -19 5 -37 9 -39 13 -9 110 28 119 44 7 14 2 16 -31 13
-21 -2 -52 1 -69 6 -29 11 -29 10 -28 -24z"/>
<path d="M7251 4973 c-8 -16 -54 -62 -136 -138 -31 -29 -210 -164 -285 -216
-36 -24 -67 -46 -70 -49 -7 -8 -558 -372 -605 -400 -22 -14 -44 -28 -50 -33
-5 -4 -62 -41 -125 -82 l-115 -74 -1 -138 c-1 -76 -3 -140 -4 -143 -1 -3 -3
-27 -5 -55 -7 -78 -13 -147 -18 -180 -21 -139 -41 -242 -48 -251 -5 -6 -7 -13
-4 -15 2 -3 -2 -27 -10 -54 -9 -27 -12 -52 -7 -57 8 -8 84 25 115 52 181 151
381 434 563 799 91 182 142 245 269 337 68 48 209 124 231 124 8 0 14 5 14 12
0 6 3 9 6 6 3 -4 22 0 42 9 20 8 44 17 54 19 10 2 28 6 41 9 112 27 197 21
256 -18 92 -60 163 -55 244 17 15 14 27 29 27 35 0 5 6 11 13 14 6 3 -11 5
-40 5 -99 0 -164 37 -204 113 -19 37 -24 59 -34 138 -3 23 -8 47 -11 52 -3 5
-1 9 5 9 9 0 5 15 -21 90 -11 31 -51 80 -66 80 -6 0 -16 -8 -21 -17z"/>
<path d="M7741 4858 c-16 -41 -77 -103 -126 -127 -38 -19 -64 -24 -122 -24
-70 1 -73 0 -67 -21 13 -43 47 -93 73 -109 68 -40 202 -17 252 43 39 47 51
132 29 212 -13 47 -27 56 -39 26z"/>
<path d="M7500 4790 c0 -25 18 -29 65 -15 22 7 32 13 23 14 -25 1 -24 1 -58
11 -26 7 -30 6 -30 -10z"/>
<path d="M7638 4400 c-33 -35 -59 -53 -91 -61 l-44 -12 1 -174 c1 -166 0 -173
-19 -174 -11 0 -155 -1 -320 -1 l-300 -1 -45 -45 c-41 -41 -159 -126 -166
-119 -2 1 -5 14 -7 27 -18 92 -66 136 -113 105 -31 -20 -32 -82 -3 -135 23
-40 44 -52 94 -54 32 -1 32 2 20 -86 -3 -25 -8 -60 -10 -79 -5 -43 -12 -85
-30 -191 -8 -47 -17 -103 -20 -125 -3 -23 -7 -52 -10 -65 -3 -14 -7 -43 -10
-65 -3 -22 -7 -53 -10 -70 -8 -50 -14 -88 -20 -130 -4 -22 -8 -51 -11 -65 -4
-25 -12 -80 -19 -135 -2 -16 -4 -30 -5 -30 -2 0 -7 -26 -15 -85 -4 -30 -9 -68
-12 -85 -3 -16 -6 -42 -7 -57 0 -16 -4 -28 -8 -28 -3 0 -5 -8 -4 -17 2 -9 -1
-35 -5 -57 -4 -23 -10 -61 -14 -86 -3 -25 -10 -70 -15 -100 -5 -30 -12 -73
-15 -95 -8 -52 -32 -209 -40 -260 -4 -22 -8 -51 -10 -64 -4 -34 -16 -38 -107
-35 -44 1 -77 -1 -72 -4 5 -4 16 -20 24 -37 27 -53 126 -149 199 -193 39 -23
104 -51 144 -62 68 -19 204 -28 237 -16 8 3 26 7 40 10 125 22 274 126 360
251 35 51 32 54 -68 51 -35 -1 -67 3 -71 9 -5 5 -12 36 -16 69 -4 32 -9 70
-12 85 -3 14 -7 37 -8 51 -2 14 -4 25 -5 25 -3 0 -6 20 -13 80 -6 47 -17 130
-23 165 -2 14 -7 41 -10 60 -3 19 -9 60 -14 90 -6 30 -12 71 -14 90 -3 19 -7
49 -10 65 -2 17 -10 64 -16 105 -6 41 -14 86 -16 100 -5 28 -12 73 -19 123 -2
17 -11 77 -20 132 -21 133 -23 142 -31 200 -3 28 -9 59 -11 70 -3 11 -5 27 -5
35 0 8 -4 33 -8 55 -11 53 -19 110 -36 250 -4 28 -9 52 -13 55 -3 3 -7 25 -8
50 l-3 45 73 46 c86 55 129 74 180 78 38 3 58 -11 99 -67 7 -10 29 -29 48 -43
19 -13 37 -26 40 -29 7 -8 63 -34 75 -36 6 0 22 -6 37 -12 15 -6 56 -15 91
-20 64 -8 67 -7 153 34 49 23 91 38 92 33 2 -5 8 -9 12 -9 5 0 35 -15 66 -34
31 -19 62 -33 68 -31 6 2 29 6 51 9 43 6 78 13 83 16 1 2 5 3 10 4 38 6 138
71 191 123 55 55 76 68 102 65 56 -7 117 -35 192 -88 26 -19 51 -34 56 -34 6
0 8 -10 5 -22 -4 -24 -12 -70 -19 -128 -10 -72 -16 -105 -20 -120 -2 -8 -7
-37 -10 -65 -4 -27 -9 -59 -11 -70 -1 -11 -6 -40 -9 -65 -3 -25 -10 -70 -15
-100 -6 -30 -12 -73 -15 -95 -3 -22 -10 -65 -15 -95 -5 -30 -12 -69 -15 -86
-3 -18 -7 -52 -10 -75 -6 -45 -22 -150 -31 -204 -3 -16 -7 -41 -9 -55 -2 -14
-6 -38 -8 -55 -14 -79 -25 -153 -32 -210 -3 -22 -7 -49 -9 -60 -10 -54 -19
-113 -22 -140 -1 -16 -3 -30 -4 -30 -1 0 -3 -14 -5 -30 -2 -17 -6 -46 -9 -65
-3 -19 -13 -81 -22 -137 -18 -114 -13 -109 -116 -108 -38 1 -68 -3 -68 -7 0
-16 77 -113 123 -155 37 -34 146 -105 167 -109 3 0 17 -6 33 -12 48 -20 79
-25 180 -28 66 -2 113 2 145 12 26 8 55 17 65 19 31 7 114 56 163 97 52 43
157 168 148 177 -3 3 -42 6 -87 6 l-81 0 -12 70 c-7 39 -15 90 -18 115 -3 25
-8 56 -11 70 -2 13 -6 39 -7 57 -1 18 -6 33 -11 33 -4 0 -6 4 -3 8 4 7 -3 72
-19 162 -7 39 -15 91 -20 136 -3 23 -8 53 -11 65 -3 13 -7 40 -10 59 -8 66
-14 105 -19 130 -6 29 -14 88 -21 145 -2 21 -6 46 -9 55 -2 8 -7 35 -10 60 -3
25 -9 59 -11 75 -3 17 -7 44 -9 60 -5 32 -13 85 -44 285 -11 69 -22 143 -25
165 -8 53 -15 98 -26 164 -16 91 -15 98 23 98 45 0 64 10 87 48 59 95 2 198
-70 127 -19 -19 -32 -45 -36 -71 -4 -23 -11 -41 -16 -41 -24 0 -91 45 -147 98
l-62 59 -302 1 c-166 0 -309 1 -317 1 -13 1 -15 33 -15 236 0 129 0 235 0 234
0 0 -21 -22 -47 -49z m-912 -760 c6 -51 12 -84 19 -120 3 -14 7 -47 10 -75 3
-27 8 -61 10 -75 3 -14 7 -41 10 -59 3 -19 11 -73 19 -120 8 -48 14 -93 14
-101 0 -8 3 -26 6 -40 7 -26 13 -66 20 -115 8 -56 17 -120 22 -145 2 -14 7
-43 10 -65 3 -22 8 -51 10 -65 3 -14 7 -36 8 -50 11 -81 19 -136 35 -230 11
-58 17 -108 14 -112 -2 -5 -1 -8 4 -8 4 0 8 -12 9 -27 0 -16 4 -50 8 -78 4
-27 9 -63 12 -80 2 -16 8 -59 14 -95 6 -36 12 -76 14 -90 1 -14 5 -30 8 -35 2
-6 6 -33 7 -60 l2 -50 -148 1 c-81 1 -150 2 -153 3 -3 1 -6 449 -6 998 0 548
4 983 8 967 4 -16 10 -49 14 -74z m1758 2 c0 -54 -4 -104 -8 -110 -4 -7 -3
-12 2 -12 10 0 9 -36 -1 -46 -3 -4 -3 -14 1 -23 4 -9 6 -61 5 -116 -1 -55 -3
-109 -3 -120 0 -11 1 -46 2 -77 2 -32 -1 -58 -5 -58 -5 0 -5 -5 -2 -11 10 -16
12 -79 2 -79 -4 0 -5 -5 -1 -12 6 -10 7 -70 3 -213 0 -5 1 -29 3 -52 2 -24 0
-43 -5 -43 -4 0 -5 -5 -1 -12 9 -15 9 -251 0 -267 -4 -6 -4 -11 1 -11 7 0 9
-54 3 -70 -1 -3 -1 -9 0 -15 6 -28 5 -97 -2 -101 -5 -3 -5 -11 -1 -17 10 -16
10 -238 0 -259 -4 -10 -4 -18 0 -18 4 0 8 -16 8 -35 0 -19 -4 -35 -8 -35 -5 0
-5 -5 -1 -12 12 -18 11 -59 -1 -66 -18 -12 -305 -8 -305 4 0 6 4 35 10 65 13
77 22 130 25 159 2 14 4 25 5 25 1 0 3 14 4 30 4 35 13 98 26 175 6 30 13 75
16 100 3 25 8 56 10 70 3 14 6 32 6 40 0 8 4 33 8 55 5 22 11 61 14 87 4 26 9
53 11 60 2 7 7 36 9 63 3 28 7 61 10 75 2 14 7 44 10 68 3 24 12 82 20 130 8
48 18 105 21 127 3 23 7 52 10 65 3 13 7 42 10 65 9 57 15 96 20 125 5 31 16
105 21 145 2 17 6 42 9 58 10 56 15 83 21 132 5 44 11 65 17 65 1 0 2 -44 1
-98z m-1800 -909 c-1 -538 -2 -980 -3 -983 -1 -3 -71 -5 -156 -5 l-156 0 6 25
c9 48 27 155 27 170 0 8 4 35 8 60 5 25 11 65 15 90 3 25 10 70 15 100 5 30
12 73 15 95 3 23 7 52 10 65 5 28 15 92 21 135 2 17 6 41 8 55 5 24 15 90 21
140 5 33 14 90 19 115 4 20 10 64 21 138 3 20 7 52 10 70 3 17 8 48 11 67 3
19 7 44 9 55 2 11 6 43 10 70 3 28 8 57 11 66 2 9 7 36 9 60 5 45 12 84 15 84
1 0 3 14 5 30 4 40 14 114 20 145 7 37 17 113 18 127 0 7 3 10 6 9 3 -2 5
-444 5 -983z m1843 874 c14 -81 19 -118 28 -187 2 -19 6 -44 8 -55 5 -22 25
-150 31 -202 3 -18 7 -40 10 -50 3 -10 8 -40 11 -68 3 -27 7 -61 10 -75 2 -14
7 -41 9 -60 3 -19 8 -51 11 -70 3 -19 10 -66 16 -105 15 -101 18 -122 23 -152
3 -16 8 -48 11 -73 3 -25 8 -52 10 -60 3 -8 7 -33 10 -55 5 -36 10 -73 19
-130 2 -11 7 -47 12 -80 4 -33 9 -62 9 -65 1 -3 5 -27 9 -55 4 -27 11 -72 16
-100 9 -52 16 -99 26 -175 l6 -45 -154 0 -154 0 -1 978 c0 537 3 975 5 972 3
-3 12 -42 19 -88z"/>
<path d="M4148 4185 c-2 -2 -23 -6 -48 -10 -69 -9 -187 -44 -268 -78 l-74 -31
-57 -115 c-107 -217 -208 -389 -304 -516 -18 -24 -41 -55 -52 -71 -22 -30
-128 -166 -178 -228 -67 -83 -182 -214 -302 -342 -120 -129 -268 -329 -332
-451 -15 -29 -31 -53 -35 -53 -4 0 -8 -5 -8 -11 0 -6 -14 -41 -32 -78 -18 -36
-33 -70 -35 -76 -2 -5 -16 -49 -32 -97 -16 -47 -33 -106 -37 -130 -3 -23 -8
-54 -11 -68 -6 -44 -22 -200 -28 -290 -2 -30 -6 -81 -8 -112 -3 -32 -2 -58 2
-58 4 0 8 6 8 13 1 73 68 360 103 442 4 11 15 38 23 60 17 45 81 179 100 210
73 116 142 186 264 268 138 91 292 160 392 173 25 3 49 8 53 10 8 5 196 5 233
-1 17 -2 48 -6 70 -9 306 -40 536 -261 600 -576 0 -3 4 -21 8 -42 8 -39 9 -39
97 -22 14 3 39 6 55 8 79 8 95 16 96 49 5 110 31 257 60 341 29 82 106 244
124 263 20 20 19 35 -2 29 -233 -67 -461 -47 -608 55 -45 31 -135 113 -135
123 0 4 -9 17 -21 29 -26 28 -99 155 -99 172 0 8 -4 16 -9 19 -8 5 -34 93 -31
106 1 3 -4 18 -10 35 -12 32 -16 217 -6 275 15 82 18 98 36 151 29 85 65 163
101 216 27 40 139 157 192 200 39 31 210 131 237 138 3 1 16 6 30 12 81 35
133 53 151 53 11 0 18 4 14 10 -5 8 -279 13 -287 5z"/>
<path d="M4468 4125 c-2 -2 -19 -7 -38 -10 -260 -44 -566 -346 -651 -643 -10
-34 -18 -65 -18 -67 -1 -3 -1 -6 -2 -7 -10 -27 -14 -228 -5 -295 20 -147 123
-315 234 -379 17 -10 32 -22 32 -26 0 -4 5 -8 11 -8 6 0 24 -9 40 -21 16 -11
29 -17 29 -14 0 4 11 0 24 -9 45 -29 175 -58 255 -57 81 1 83 1 151 20 25 8
50 14 55 16 6 1 17 5 25 8 66 24 80 26 80 9 0 -10 -8 -29 -17 -42 -10 -14 -17
-26 -16 -27 3 -3 -6 -28 -27 -78 -9 -22 -33 -80 -52 -130 -45 -114 -51 -128
-53 -140 -2 -5 -8 -28 -14 -50 -5 -22 -13 -57 -16 -77 -3 -21 -8 -55 -11 -75
-13 -86 -13 -85 10 -78 37 11 90 18 131 18 71 -1 125 -8 125 -16 0 -4 3 -6 8
-5 30 6 146 -91 181 -152 23 -40 59 -112 71 -145 l12 -30 39 45 c41 46 197
249 235 306 68 100 163 280 180 339 1 6 12 42 22 80 46 161 65 302 64 475 -1
128 -8 200 -32 315 -13 60 -6 39 -55 195 -14 44 -99 214 -115 230 -3 3 -23 31
-44 62 -22 32 -78 97 -125 146 -72 75 -113 109 -236 200 -43 31 -203 97 -260
106 -5 1 -14 4 -20 7 -11 6 -201 10 -207 4z"/>
<path d="M7515 3659 c-52 -26 -68 -30 -118 -26 l-58 5 6 -236 c12 -497 14
-561 19 -717 3 -88 8 -218 11 -290 3 -71 7 -179 10 -240 2 -60 7 -168 11 -240
3 -71 6 -136 5 -142 -2 -21 -1 -35 4 -98 2 -33 7 -103 9 -155 3 -52 8 -131 10
-175 3 -44 8 -117 11 -163 3 -46 7 -106 10 -134 3 -28 7 -78 10 -112 3 -33 7
-86 10 -116 4 -50 7 -75 20 -175 2 -17 12 -64 20 -105 9 -41 19 -88 21 -105 3
-16 7 -37 10 -45 3 -8 8 -26 11 -40 3 -14 6 -29 7 -35 1 -5 11 -46 21 -90 24
-110 29 -116 44 -48 7 32 17 72 22 88 10 34 65 291 73 345 18 114 19 124 32
260 11 123 13 151 19 235 11 167 15 224 21 355 3 74 7 171 10 215 2 44 6 148
9 230 3 83 7 197 9 255 9 229 19 594 20 752 1 93 5 168 9 168 4 0 3 8 -2 19
-6 10 -8 21 -5 24 3 3 7 120 9 260 l3 255 -57 -5 c-51 -5 -63 -2 -107 25 -27
17 -49 30 -51 29 -1 -2 -5 -597 -16 -2394 -2 -251 -5 -323 -14 -323 -10 0 -13
57 -14 248 -3 1404 -8 2465 -11 2467 -2 2 -30 -10 -63 -26z"/>
<path d="M1071 2444 c-54 -12 -118 -49 -154 -90 -22 -26 -48 -68 -94 -156 -40
-77 -117 -145 -192 -170 -44 -15 -64 -16 -114 -3 l-29 8 17 -32 c17 -34 90
-86 140 -100 43 -12 148 -4 191 14 20 8 38 15 40 15 9 0 -12 -38 -34 -62 l-25
-28 32 -13 c29 -12 121 -14 171 -4 178 36 323 150 391 305 7 17 17 32 21 32 5
0 8 6 8 14 0 30 120 42 181 18 15 -6 30 -8 33 -5 3 4 6 2 6 -4 0 -6 12 -14 26
-17 31 -8 159 -134 169 -167 4 -12 14 -29 21 -37 8 -7 14 -24 14 -37 0 -13 4
-26 8 -29 14 -9 5 -92 -16 -138 -27 -63 -96 -127 -215 -200 -56 -34 -103 -66
-105 -70 -2 -4 -7 -8 -12 -8 -9 0 -342 -219 -350 -230 -3 -4 -15 -13 -28 -19
-33 -17 -58 -38 -118 -96 -80 -78 -116 -162 -116 -275 0 -186 104 -374 298
-538 125 -107 389 -255 494 -277 8 -2 15 -4 15 -5 0 -1 7 -3 15 -5 33 -8 61
-15 83 -21 12 -3 76 -7 142 -9 129 -4 207 11 304 56 92 44 185 130 231 214 23
42 23 45 7 63 -9 10 -17 24 -17 30 0 7 -4 12 -8 12 -5 0 -15 12 -23 28 -7 15
-23 43 -34 62 -23 38 -66 137 -69 157 -5 30 -15 18 -41 -49 -16 -40 -44 -99
-63 -131 -37 -62 -133 -154 -169 -164 -13 -3 -23 -9 -23 -14 0 -5 -3 -8 -7 -7
-5 1 -43 -6 -87 -16 -106 -25 -263 -17 -392 20 -137 39 -404 252 -465 370 -13
26 -24 50 -25 53 0 3 -3 13 -7 21 -11 29 -18 76 -21 133 -3 79 31 148 100 202
58 46 55 44 195 135 57 38 112 76 122 84 9 9 19 16 22 16 5 0 247 161 255 170
3 3 23 17 46 31 38 25 64 50 115 109 26 31 68 123 76 170 19 103 -8 260 -53
304 -8 8 -14 19 -14 24 0 8 -75 80 -124 120 -50 40 -196 92 -295 106 -40 5
-94 31 -124 59 -14 14 -80 46 -122 59 -57 18 -152 24 -204 12z"/>
<path d="M3207 2439 c-15 -4 -42 -10 -60 -12 -31 -5 -84 -21 -158 -49 -48 -18
-163 -86 -199 -117 -16 -14 -42 -37 -57 -51 -35 -30 -115 -128 -147 -179 -75
-119 -162 -325 -181 -426 -2 -11 -4 -20 -5 -20 -2 0 -5 -14 -15 -65 -31 -157
-36 -420 -10 -545 2 -11 7 -42 11 -70 3 -27 8 -53 11 -57 2 -5 6 -18 9 -30 8
-37 9 -40 33 -116 13 -40 24 -72 26 -70 1 2 5 68 8 148 4 88 15 182 27 240 23
105 27 123 31 130 1 3 3 10 4 15 1 6 4 17 7 25 3 8 16 44 28 80 22 65 29 82
71 175 12 28 23 52 23 55 9 32 155 294 167 298 5 2 9 9 9 16 0 12 20 42 50 75
8 9 27 33 42 52 41 55 188 199 203 199 3 0 17 11 32 24 87 81 420 236 506 236
44 0 -1 19 -78 33 -85 16 -340 20 -388 6z"/>
<path d="M3730 2340 c-127 -26 -263 -81 -381 -155 -114 -72 -288 -229 -375
-340 -21 -27 -41 -52 -44 -55 -20 -19 -154 -226 -155 -240 -1 -3 -8 -18 -17
-35 -14 -28 -77 -194 -83 -219 -1 -6 -5 -18 -8 -26 -14 -35 -63 -249 -81 -360
-3 -19 -8 -46 -11 -60 -3 -14 -7 -47 -10 -75 -2 -27 -6 -60 -9 -71 -4 -19 -13
-125 -21 -232 -1 -23 7 -45 26 -72 16 -22 29 -44 29 -49 0 -5 4 -11 8 -13 4
-1 52 -67 107 -146 55 -78 103 -142 108 -142 5 0 23 10 40 22 18 13 44 30 59
38 31 17 170 111 178 120 10 11 88 70 93 70 3 0 20 13 39 29 18 16 78 66 133
112 105 88 295 275 295 290 0 5 7 9 15 9 8 0 15 5 15 10 0 6 8 18 18 29 9 10
31 35 47 56 17 21 35 43 41 49 32 34 178 263 200 316 4 8 20 43 35 78 16 35
29 69 29 76 0 7 3 16 7 20 4 3 8 13 9 20 1 7 9 39 19 71 55 189 26 424 -78
626 -33 64 -98 171 -115 188 -7 8 -20 25 -29 38 -26 39 -42 42 -133 23z"/>
<path d="M4528 1876 c-71 -29 -79 -34 -128 -80 -62 -57 -111 -172 -114 -263
-1 -13 -4 -23 -7 -23 -3 0 -4 -53 -3 -117 3 -168 15 -201 119 -315 25 -27 45
-53 46 -56 1 -4 2 -56 3 -117 2 -60 6 -137 10 -170 9 -71 54 -215 102 -327 19
-45 33 -82 32 -84 -2 -1 -16 -5 -32 -8 -60 -11 -123 -38 -160 -67 -62 -52 -71
-99 -36 -188 l17 -45 22 42 c36 72 65 82 236 83 95 1 98 1 140 -36 22 -20 57
-47 78 -62 l37 -26 455 -3 c516 -3 471 -13 401 91 -41 61 -86 116 -120 144
-10 9 -24 22 -31 29 -8 6 -18 12 -23 12 -6 0 -12 3 -14 8 -7 15 -166 85 -222
97 -12 2 -32 7 -46 10 -14 3 -53 8 -88 12 -57 5 -67 10 -100 45 -93 98 -147
216 -157 346 -5 66 -8 242 -4 252 1 3 3 19 4 35 2 17 6 41 10 55 19 73 26 318
12 417 -9 69 -18 90 -63 148 -120 158 -248 213 -376 161z"/>
<path d="M3818 469 c-62 -20 -130 -44 -151 -54 -43 -18 -86 -23 -192 -24 -63
-1 -73 -4 -105 -31 l-35 -31 120 5 c109 3 132 8 250 47 111 38 142 44 211 44
54 0 86 -5 97 -14 10 -7 17 -11 17 -7 0 3 14 -6 31 -21 102 -90 118 -126 116
-263 l-1 -105 36 -3 36 -3 -3 118 c-2 65 -4 118 -5 118 -1 0 -3 8 -5 17 -16
83 -97 182 -178 218 -73 32 -115 30 -239 -11z"/>
<path d="M5373 434 c3 -3 47 -20 99 -38 129 -45 258 -123 258 -155 0 -6 4 -11
9 -11 5 0 11 -8 15 -17 3 -10 28 -58 55 -108 l49 -90 76 -3 c42 -2 76 -1 76 1
0 25 -61 167 -72 167 -4 0 -8 6 -8 13 0 12 -69 89 -106 117 -33 26 -149 77
-161 72 -2 -1 -21 5 -43 13 -22 8 -40 12 -40 10 0 -2 -15 1 -32 6 -18 5 -55
12 -83 15 -27 3 -61 7 -74 9 -13 2 -21 2 -18 -1z"/>
<path d="M3815 386 c-27 -7 -75 -22 -106 -34 -31 -11 -60 -18 -63 -15 -3 4 -6
0 -6 -7 0 -7 -3 -11 -6 -8 -3 4 -20 2 -37 -3 -57 -17 -100 -21 -208 -23 -78
-1 -111 -5 -124 -16 -17 -14 -15 -15 21 -22 80 -13 230 -7 305 13 88 23 196
31 245 17 43 -11 86 -51 104 -97 7 -19 14 -67 14 -108 l1 -74 89 2 88 2 -4
111 c-5 146 -33 203 -121 252 -37 20 -130 25 -192 10z"/>
<path d="M3607 243 c-29 -7 -63 -15 -77 -19 -33 -9 -222 -14 -235 -6 -5 3 -16
7 -25 8 -8 0 -28 3 -45 5 -16 1 -41 -4 -55 -13 -109 -69 -142 -88 -149 -88 -5
0 -11 -3 -13 -7 -3 -9 -84 -63 -93 -63 -3 0 -14 -8 -25 -18 -18 -17 -14 -17
97 -17 63 0 117 -3 119 -6 2 -4 21 -3 43 1 21 4 46 3 54 -2 9 -4 18 -5 20 -1
3 5 45 6 94 3 48 -3 200 -5 338 -5 l250 0 2 50 c2 58 -14 99 -54 136 -64 60
-124 71 -246 42z"/>
</g>
</svg>
